/* XPM */
static char * ground3_64_64_xpm[] = {
"64 64 114 2",
"  	c #292119",
". 	c #2B231C",
"+ 	c #2B2218",
"@ 	c #2A2218",
"# 	c #2A2118",
"$ 	c #2B2319",
"% 	c #2A2219",
"& 	c #2B231A",
"* 	c #2A2119",
"= 	c #2C241C",
"- 	c #2A231A",
"; 	c #292117",
"> 	c #292118",
", 	c #27201B",
"' 	c #2B2825",
") 	c #2C2722",
"! 	c #2D2823",
"~ 	c #2A231B",
"{ 	c #27211A",
"] 	c #2A2621",
"^ 	c #231D17",
"/ 	c #29231C",
"( 	c #29231E",
"_ 	c #27231F",
": 	c #25201C",
"< 	c #211C17",
"[ 	c #231E1A",
"} 	c #241F1B",
"| 	c #1F1A15",
"1 	c #1E1914",
"2 	c #2D2A27",
"3 	c #282420",
"4 	c #2A2723",
"5 	c #26211E",
"6 	c #1C1A18",
"7 	c #201B16",
"8 	c #1E1913",
"9 	c #211D18",
"0 	c #221D19",
"a 	c #302D2A",
"b 	c #1E1813",
"c 	c #282421",
"d 	c #292521",
"e 	c #25211D",
"f 	c #2C2825",
"g 	c #2A241F",
"h 	c #231F1A",
"i 	c #25201A",
"j 	c #282119",
"k 	c #181818",
"l 	c #222222",
"m 	c #252525",
"n 	c #323232",
"o 	c #232323",
"p 	c #212121",
"q 	c #2E2E2E",
"r 	c #2A2A2A",
"s 	c #161616",
"t 	c #272727",
"u 	c #2B2B2B",
"v 	c #141414",
"w 	c #1D1D1D",
"x 	c #0A0A0A",
"y 	c #111111",
"z 	c #171717",
"A 	c #2C2C2C",
"B 	c #1B1B1B",
"C 	c #242424",
"D 	c #1E1E1E",
"E 	c #1C1C1C",
"F 	c #0F0F0F",
"G 	c #121212",
"H 	c #1A1A1A",
"I 	c #262626",
"J 	c #191919",
"K 	c #202020",
"L 	c #1F1F1F",
"M 	c #313131",
"N 	c #131313",
"O 	c #151515",
"P 	c #2F2F2F",
"Q 	c #292929",
"R 	c #282828",
"S 	c #0C0C0C",
"T 	c #383838",
"U 	c #303030",
"V 	c #0E0E0E",
"W 	c #0D0D0D",
"X 	c #2D2D2D",
"Y 	c #101010",
"Z 	c #080808",
"` 	c #070707",
" .	c #0B0B0B",
"..	c #3D3D3D",
"+.	c #030303",
"@.	c #090909",
"#.	c #343434",
"$.	c #3C3C3C",
"%.	c #373737",
"&.	c #3A3A3A",
"*.	c #404040",
"=.	c #333333",
"-.	c #454545",
";.	c #040404",
">.	c #353535",
",.	c #060606",
"'.	c #393939",
").	c #414141",
"!.	c #050505",
"~.	c #363636",
"{.	c #3E3E3E",
"].	c #3B3B3B",
"^.	c #3F3F3F",
"/.	c #464646",
"  . + @ # + + + + + + $ + @ % $ & % % # % # * # & % = = % % # * - # ; ; ; > * * % & % % ; * # * % * % & + ; % % > * + + + + # + ",
"+ & , ' ) ! ~ { ] ^ ^ % @   / ( _ : < [ } | 1 < [ 2 3 4 5 _ | < 1 6 7 8 9 : 9 0 2 a 7 b < | 7 c : d e f g 1 : h < h | e < i   # ",
"j k l m n o p k q r s t t m u l t t v p w x s y z m A p B C p D E s F G H D z B I J J E y C z K D L z M n w N D l t s N B O H # ",
"s L z A P q Q m R m B w t p I K A p D I B v v D z o u t R m I A p H Q O K E l M C C w H Q E N k O S v J C l p B K H E H p G O D ",
"z O J o m P T I U m m R r p w m u l m w K v w B J B J D C m w O N O L J N B O V W L H K X E Y v G v B K B K B F Z J C E v k J J ",
"D v `  .N k ..l C I l p J A H t C l l C p J m E S o D o o k t y G V Y w y G z w k L z p s G z l v +.k o D o N v y B K k O y v W ",
"l J @.+.x m n n u p L B D D E o R l n O E J w H w L K P p J O z k J z s s J H L D z O k Y v J N Y ` k D s G y H y E l E N H y W ",
"N k H S D J P #.U t J p E r C o X m p J I Y p F w L D m L D J k H J s D L O t q E z O v B z O Y Y z D w w J w E E E Q I y O O F ",
"B E k E Q w Q t A H F B o T X I R r E K o I o x G O p E I l G y k J D B J B H D z y N O B E y G z s B l I E p v o r t E z y B G ",
"k r P p l o #.q A o Y u Q o p E N u H l o P v V F z t w Q v O v W O s G J l z y O w G y s E F J w v z s m K s E K C K E H E z Y ",
"s t Q t U o $.u r q C M n y m B q I L B v K O p z z L w p z G O k H v D z y z v H H J D y L k H p K z W I s l t R R l B R Q F z ",
"R R K J q I %.&.t *.X q A R K t Q U H J B p k Q E N D D K D K p C Q o m J F D v E o J J L H V H l l E D o p R u t L r o N S O G ",
"p p C O o q =.M L -.A t r r I p P P l s J H E E p N E E K y v L o D R L w J p B y K R L H s J o C p w w I L m G S G F w D s l z ",
"t o H B t m p X u X =.n p r I H R A H N N v O H k v E K y N W k D H B p @.N t K O s w z w l o H C q D D C l w D p K C k l L K Q ",
"C w H L k K C u m U u o K H s k s K z y y G z N v J J t K k v y J v O  .N s I z J l K v o t t H H R E I C D w D l w s E G o K C ",
"z B H O z I I E M I r N Z y O B z p J k k O B w H y E B X t K y w D E s D Y N v O L l u o R L O l m p k s E z C p m o O k p L t ",
"D k J H O w w D p m V O J H w H C o D s H J z J E z k s I m K N C t s  .k E G O E C H J M m s Y J G l k D t Q C t =.w L L k o J ",
"I l v H r z y S O H k z B J H A Q E p B w k E D W x G x k F w z u K O N I J O E H H L K A X C D l Q L r X C u G D p L t K p E o ",
"l J E G G s J B O G J D z C K X q s L J H D H O N V J  .V Y k s s l s Y l L N J p l p J U Q E p J K N G o l y v w k C v p D w k ",
"l R y G  .N O R t o o X s L K U U K K o H z N s H y G y N Z k G H z o w o z z F K s m r t t k H s Q N D ` B G s s k u o t E z G ",
"K t Q W B z J C r N L R L w l R Q I B L v O s s v O s O E V B s z y z E w D k B w J K E O J E J K O K l E D C o @.E X t K C B p ",
"E m U E l ` O E s N O X w G C I t J C p B E B s F Y  .K C k F y v v H o s s N Y N v H z W k V F G l R r m o r z z E o D H C E L ",
"N J l U m V y y B s Y C L H p L G V L v V w I H Y W W L @.Y N  .J  .k H E s z Y z G t p y C m C r t =.u Q z t E E o L k v l m L ",
"o H l u I p F k H s D Q I k J l l B l m F O H o F F S ;.F F y y k E H L m s l w v p t Q I R o t A %.>.r U D W s F w K B H z X H ",
"A r J p t L O y S K w C E I s H H K H l z k z N S ,.x ,.F J W k H k D m L k t O z D '.X Q I R A R u ).C A U C Y G O I Q B z q r ",
"z L m s w N J ` !.Y L p E l k H p s D E H s G k ` Z @.G F V D J Q X l p o N l G E E u q D K E M P l *.B *.#.E K J B p J w >.q l ",
"v s K J H z p Y O  .v p E L S O s z O z z G H G  .V F W H O w z A I o =.C I P I D K C H J B I =.Q E I A M =.K J I K K p m %.t m ",
"v k z O G O E F B E z E F D Y z H O G Y S W z y v S x W S @.E A C L N u m B L L m o C w C %.Q >.l J R q q U w D K O t O C ~.K u ",
"E y B O v K y s J w s v p z O E v B z O N V J F s V F G S F J D I t v p I D O m B I r t w %.C C V Y D I Q k D w D p H s L t m o ",
"p H R Q o l O N k w B y k k v N v S s N N F s Y N Y  .,.x s N l C B B u w B E s I R u l K R R k l K A #.r l X L X U u m C t K J ",
"D p t Q A X B l t B O H V D Y @.;.x z y F v G x G  .S Z Y k o t E z K J I p L L D Q U l K E L o L z R X P s k C p R t H m o B I ",
"H k z L K t L D K A Q J N V z N  .Y O s y G F S V x ,.S K H z G y W B k L k W ` w l p u z p o k q s u R I s s K A o r A k B K C ",
"G C m z K r z K K r q H v z H H J s F V W k p L N L y O K z v Y G y O k k B H o K p I o I R q m L L ~.l l I D =.C F Q m A %.R P ",
"J p I L t Q J l p R I l l l H N F D Y H w E N O z o D J Y t B z Q H F N N O N w N y M Q B u I C C p A t I r w L y B p l m =.B ..",
"m J B D B Q p I w O k s O K G O s H o t K F x z N w B J s l L E w v J K J J k Y k N u I s K U R m A  .N K w E R k R p E J m k Q ",
"H L Q K L >.r E B y O O l J F v L K B I E m H Y J l m t K k E v S V D E w H k J v W F J D %.u o s #.G J B o R u l p X K B w p z ",
"r o P A t C X p V N O O y E L y l I u A Y G N w D R C L O l L F s S o z E V G s F K z I w M t p E Q l B C Q P K ~.t P C D m z B ",
"m R r k B r A p B F G V D N J z B w w m R N y A m D L O k E E z N z l u H y s V ,.F G z R n p X o t H H N F K M R p o m R L m K ",
"A m M t J p t t l O L H O Q s H Q l y t q o t I o J w w E y z k N N w I y k Y Y F W s Z z K t A I =.J L m !.K o &.t I w L H L N ",
"o B s B W  .B t p s H C B L s w o t O E A u D G k  .w J B  .O z w F K o B w O N s y H ;.,.x p u U D N k O y N m {.#.I B k D t o ",
"Y O s J Y s Q I w s w p o E V t p o l K D t E W K O I R O S Y E L w F E w w k N J L H  .` ` L n '.w k G B t C E o q R E O D K X ",
"S y O v H B H N k B O s N D o l r t r p D G m O r Q t t O G G q Q u X k I I L F k Y s w y m k E L k s u I t p t n A m z k =.q C ",
"V w y N D E Y z k o Q D J p w C R X Q L z L H p r Q I ~.o J G p R o O C z F O y J k J w K l z N D s L A Q C u X q P r D p X C K ",
"H L G E V k Y y N O D L B D m w L u >.I H w N k Q &.U I #.p s D S F G H H o O H H J R U l r o u U X I A D q I X ].I %.Q =.o C K ",
"E k E E z D v O G Y k N z z E E p L R G w Y G L X '.$.w U I o D C m w K H C D L p w t r C U m #.t m K D k N q n ].I &.>.r I C J ",
"N C D w Q s W m O N v V N H L D w o L k E s Q o r R *.'.w q m N m C s s s k C C t t t p s u I t o o m C L B L q P r P ].A V D w ",
"y k t w D H p E J z p J k E J K s E o z J R A A I %.p Q m r ^.K R D I E v D w B J p p C B H u R p D o J w L H l C r m %.I J O v ",
"s J E G O Q K D  .E y H H E O z B O I m C o o p P u P Y I L A -.Q l I D w o l w w l K z z E K I I O B J s v E p P I R r u A A m ",
"O y K B R u t G w A G k w p N J G Y k r U A w o A ~.t V w u q n m E K L E t o v C K K D H o L G w B E w J k L O z D Q q ~.U K l ",
"Y N S Q R I w z o r v O s J L G s J w =.A q K K t o I D D p #.z D N B C ,.k B k D O B I s G D V x L D L J p k Y Y s C t H I E G ",
"v B G D %.Q l l l t o v y z F J J N L w C C V R ~.U J L w D E V O p k s +.x C H H o o K I s y z t w D E F z V H w K Y V L K w N ",
"E y z E A R o p o u E J z p K v E w  .D l u K A m P p K p t J F  .z v w V p z v t q Q D q P s I U m C k V Y V w w z y Y N H Y z ",
"J B F L q o J K y C Y z y p R E E B L v p r A Q t k K o q C o H z s B z D I D C C u w G O p r C R p L o H y J H O H w z B E v I ",
"D Y H w K D E B J u t o s W w K m t K D l C I u C o m w l #.z l E D r Q o q J M q X K O Q %.A I I E k H J y G w W L D l w K o H ",
"w J k k G E E y B w B A B H L K B R C K D A r R C m p E E l K H L B t u I q t t q C R o =.=.w t J k J C w v y K B H w w w t J F ",
"x G v J x L O y o J C l o Y z k z O z N D o l m r m I H o R V z O m X K J K D w A w ).o X P w z L P p N s N O W z L K J p E A G ",
"w J D m w Q t m I K q p t z H V z Y N v D o l I I u z K E B H v E K E D w L t ~.M w /.r r K B w Q o m s B D v J C C w t #.X m X ",
"B L V B o t X Q I C t m O K p F k S k k z m o z N p w o B k t K B I o p O p q I =.R n #.A l l s m t k w w A m C p B r P A R p r ",
"k m B J E L p K r p E B B N y E O x  .V N z Y k V k k E E s D L R C K k o H w t P C u n o w t D L m m A Q M u p F z E C t L t V ",
"Q z z E I z m H L D k D H B z G O F y O y v J B v O o Q J v p K D z E k s k L u E r m r z k l Q C t R D U P I z B H L J K C O m ",
"J E o D o H E J  .W D D B s k H k z H G B J E l r o D l o H k J v L D J D N B B o H I J F E O G w p t z z l K K I S s v K H #.p ",
"l A v D B L p F O  .R s D s G E S O v N I L Q u C D N E o V I D V l K H D t v Y F O B J o D K p H y E L D L o D D s @.L K E R I ",
"w C D L k v v N z G K p s F F s F H p H l p L M K K D H K L Q K F l L z Y v F l H v O w B Q o t o J J s y y K N H p y G y J G U ",
"o A m Q H v L B G k H M o y O y k k J @.V L E t K q k v z l l O s C o G z S W G o R p G w P C C R I K C D o L B w K I u I V N C "};
