/* XPM */
static char * ground4_64_64_xpm[] = {
"64 64 122 2",
"  	c #2B251F",
". 	c #2B2218",
"+ 	c #2A2118",
"@ 	c #29231C",
"# 	c #2A2218",
"$ 	c #292117",
"% 	c #261F18",
"& 	c #251E16",
"* 	c #282119",
"= 	c #292118",
"- 	c #292017",
"; 	c #292119",
"> 	c #2A2219",
", 	c #2A2119",
"' 	c #2A231A",
") 	c #2B231A",
"! 	c #2B2219",
"~ 	c #2A2319",
"{ 	c #2B2319",
"] 	c #2B231B",
"^ 	c #282017",
"/ 	c #281F17",
"( 	c #26201B",
"_ 	c #241E19",
": 	c #211C17",
"< 	c #1F1A15",
"[ 	c #1E1914",
"} 	c #26211E",
"| 	c #25211D",
"1 	c #282420",
"2 	c #201B16",
"3 	c #211D18",
"4 	c #27231F",
"5 	c #2A2722",
"6 	c #2C2722",
"7 	c #2A241F",
"8 	c #24201C",
"9 	c #2A2623",
"0 	c #231D17",
"a 	c #28231E",
"b 	c #2A2521",
"c 	c #28211A",
"d 	c #29231E",
"e 	c #251E17",
"f 	c #2F2C29",
"g 	c #282421",
"h 	c #231E1A",
"i 	c #221E19",
"j 	c #221D19",
"k 	c #2C2825",
"l 	c #1D1711",
"m 	c #1B150F",
"n 	c #1E1913",
"o 	c #25201C",
"p 	c #1E1E1E",
"q 	c #201E1C",
"r 	c #1A1A1A",
"s 	c #1F1F1F",
"t 	c #212121",
"u 	c #1C1C1C",
"v 	c #131313",
"w 	c #202020",
"x 	c #272727",
"y 	c #141414",
"z 	c #222222",
"A 	c #161616",
"B 	c #191919",
"C 	c #181818",
"D 	c #232323",
"E 	c #2A2A2A",
"F 	c #1B1B1B",
"G 	c #262626",
"H 	c #171717",
"I 	c #2D2D2D",
"J 	c #242424",
"K 	c #0D0D0D",
"L 	c #151515",
"M 	c #2B2B2B",
"N 	c #0C0C0C",
"O 	c #101010",
"P 	c #111111",
"Q 	c #1D1D1D",
"R 	c #252525",
"S 	c #080808",
"T 	c #030303",
"U 	c #2E2E2E",
"V 	c #262523",
"W 	c #333333",
"X 	c #292929",
"Y 	c #121212",
"Z 	c #0F0F0F",
"` 	c #2C2C2C",
" .	c #323232",
"..	c #343434",
"+.	c #2D2926",
"@.	c #282828",
"#.	c #090909",
"$.	c #2F2F2F",
"%.	c #0B0B0B",
"&.	c #0A0A0A",
"*.	c #303030",
"=.	c #0E0E0E",
"-.	c #373737",
";.	c #3A3A3A",
">.	c #353535",
",.	c #3D3D3D",
"'.	c #060606",
").	c #313131",
"!.	c #444444",
"~.	c #414141",
"{.	c #070707",
"].	c #3C3C3C",
"^.	c #383838",
"/.	c #3E3E3E",
"(.	c #3F3F3F",
"_.	c #050505",
":.	c #393939",
"<.	c #363636",
"[.	c #040404",
"}.	c #454545",
"|.	c #3B3B3B",
"1.	c #404040",
"  . . . + @ # . $ % & * $ = $ - $ ; > , , , $ $ $ ' ' ) > > . . # ! # + # # , > ~ . > > ' > + > # # # ! ! { { { . . . . . . . { ",
"] * ^ ) ^ ; / ( _ : : < : < [ } | 1 | 2 < 2 < 3 < 4 5 6 7 8 4 9 0 a a b 0 c @ d e > 4 f g [ 3 < h : i j 4 3 g k j | l m n h { . ",
") 4 o p q r s t u v p w p u x u v y z A B y C A B D z r E u F G H z I J K L H r w I M H N L O F C P s Q v P t R z v S T Q U V ! ",
"C u F t x Q R B O A F M U W x X B s I Q Y B s B N C P G x A t X L x J J Z A H s w x D D F Z Y z L H A ` D E  .z I z N Y s U ..+.",
"A y p u C p x @.u r Q x M M X X x w H u r u B B #.u p $.E ..D M x E w t R L Y L z p %.&.H O A A p R z D $.x J z u H J u E I t I ",
"Q C J p z t I X y B F B z R Q x z J O v v Y H B X p D I *.x p =.D t u H P Q p B A O O v H A Q P Q x J t ..-.;.W E E >.;.-.` G s ",
"H H P r r s x D O v u s J t F P p B ` H =.L P u @.E w s s x Q t p w B H P P N S P F %.F @.X A N t r U *.*.,.M I w >...R z w r w ",
"O C v &.F G x G D F C P s D z w Z y v v Y Y C s t Q s y y p z z C @.w B r Q %.'.K r u r U G Y L w $.J @.z w @.$.@.).).w ).X W @.",
"H y =.%.w z R Q C u X t J $.G -.Q L L P L p w v A y P Z P Y B $.p x r F F F K y t Q v O B @.v r x R I U !.~.X D r @.t D F @.X B ",
"u s J u C p G $.J Q @.O Q w u C P u B Q u x p r Q B u A C H s *.E J L F u P C R t r B O x w B B H M ).-.` z z v Z p H X x u F L ",
"M t u p t F w t R >.@.y Q A p C A H Y Y z w H O w Q Z Z A u Q w r r y A v C D G G X G W R ` F J Z L w I E W  .M C z p F M B J t ",
"J A u t r B s D J p A Y C y A p z p L A r L C D G C r r t L A C C r K w H s A w D J p D J t L r u {.u E E *.$.-.x L z Q G X Q s ",
"v Y L Q u A F s A y Y p F L B w u Y w H B s u p w t p B L u C R &.Y s C Q Q s D w r y H s u z H C P B J ` w G G W I w @.D r J u ",
"P y P L L v w Q H Q F X E L r p A C J s X w G Y y s u t r P H u r A L Y P Y v B F p E t s D J r Q Z F $.D t p p U X H p p J z z ",
"=.Y C B v r r K y r Q B Y y v B y Q F F w C G R y s F Y O Y L H Q #.P C A v P B C Q w R R M R I A Q u C G R p w x t @.J w D R J ",
"L L O u y y L r r F t C u p O P r r B w Q D G X D D t H w t Y L A '.S B A r r Q C z L X E  .M M Q v P D I I I L U x R R E E G w ",
"O Y Y y =.P O Z =.x E z s u A H O C J J z *.$.R G @.p w @.B t y A S S L w A H F s L L z p t t s X z w M ).I X M D ` R @.D G D R ",
"F s B B Y S P P F t Q J K Q B r Q z s t $.G *.G s y C E t J Q v v A r P C =.H B s t y R D w B w p u F B J J F t t J M X D z C w ",
"=.A P O Z Z s A F J u B u C x x @.p P u X J t D B G s D G z C B N v P B A N Z B G R F t s s Q u H F %.A u r t Q G H r C p w F C ",
"#.F p B L A v B H t Q p Q w *.` E Y Q B s C J C u z ..s w F L Y L B P P O L t H r r v p r D u z w C y C A Y K z s D C J D s s u ",
"s s t u v K t x s F D ` ` G x W z p u v p v p w *.` Q C Y s A Q Z Y =.=.=.K B Q r A B H H L B C O w O O u J z I G s u r B C =.v ",
"C H v A A u x s s $.t ..s L R X x R $.O K p r p x p P Z u u Z B y P O A H v O L K x x p P v L Y H B H y C H r H t r t Q u H A O ",
"x `  .D u v C R R G @.X E J s D E I R J y H v H P M x t y Z v p t K Z P Z A C B s s w B L P Q t u B P B w J Q v L H F Q H H v Y ",
"G @.I J A v v R x t ` @.Q ` G H @.X x ` J @.s Q H u G G B O w L K N Y Z v K Y O =.Z =.Z Y s C C r H L B u J u P #.H y v F r F r ",
"D O z D L y B @.M R x s ` ].).$.).@.I  .>.E X C O Z r @.r s B B H %.O B C K S #.K P =.L A v =.%.p H H C t B r Y =.Q z L Q F Q J ",
"s r N D w L p s z D C t G w R ^.U ^.M /...x *.s r Q A R R @.w p P S K K &.O =.S &.N %.K L &.A P H p F C C r u Q r r w s r z M G ",
"O p r J R F z u D D M z p u J r r D ^.(.I @.p M u Q p Q z @.p B Z &.#.#.O %.Z %.S &.r y v O Y =.y v u C A t L t s w w J C G ` @.",
"r u w t w Q u D z F w X B z w Y G D ` z M *.@.R B H H C B D H L y v _._.y K y y {.K Q M P Y P P p t t p z p D s p w ` D M ` t p ",
"r s p Q B F F L s p @.U R F p x Q G t G I D v =.F p v u A Q F B D u H #.#.K A Z L N &.C L O v B x I t Z u J s x z R t w t Q G D ",
"J z p r r H w p w t E G $.t w M D I W z w F {.P v O F C M F E F P z R C y P u O Y L A H P P L A x z u Y v L P Y u u L z Q J R D ",
"s G J r z E w Y N p v C K y G *.:.<.Q t D F F F B B Z v v F r r Z C w t t Q F B P Z =.Z r B H z r L u N B z A A Y C =.r z w R y ",
"y A #.C G Q D Q v Q p F O H C G (.` J u u L $.z Q H H H P L r w N u R t t M Q u v O Y r B Z S H C K O z Q x Y Y C t B r L t p u ",
"r F F p r D H C z u s r Z Y F B z R w x C F @.J C y A r L N w C Y #.B t s W ).E Q p B #.B u t x M p s u z @.p r P B H K v s F H ",
"R D J p r D x w E H C L Y t y u R z z z C y @.G &.Y B y L L A Z Y y B p u A E x B L Z F r z @.p s F N u p U p H t H p P Y Q v v ",
"@.C p F B F G w @.M I u L y p s G G p F F A @.H u z D G R r Y y Q p D r v u t E w r Q r P B v Z y A L Q E @.Q O B =.y P t E H y ",
"O H Y u F F D F H ` $.H C A w w Q F C H u r z u t z J C Q p p L H C F E I ` ).B p w y p z s Z P Y B P z r s D C B s L r F L B O ",
"Y v B A L w C J Q Q E x p [.N D z w H Z w H t R B H L A H A C L A w Q @.G D s w J x p L p p z D u u y =.B Y y Q F Q u y O u z L ",
"O L J L u B @.u r M R t C Y F C R C Q s J v B x s v C Y y r H B C t R F L x w r r L L B p F Q B L P u H s B v p B y L H B s w B ",
"O Q O r z p M U s J Q s A w B t J Q p G C B C L B Q y P y A C B H N J B z R $.w J s v y A H y u L y w R t r A r F G R F P G w C ",
"y r L s R M @...p *.).@.r u C y r p J D t Z P O y =.K y v u Y s s y z H G p R &.y A A v F =.s F H y r J r O v Z J I R F Z x w p ",
"x A P z t X U *.U D I @.M u F J s u C I w C p B F Z &.N Z P H p r z G z D w p F u y A O Q Q p w D C r O P s w H O y C p r C X E ",
"G L r p M x I p ` R $.G W w r w @.D D u w C A v F =.Z r F P C F p J E E G x D F J s H y A r s B z w r C J x p Q v Y y s w D w Q ",
"u O C G E *.*.}.(.x z F s w p F G G t $.X D H =.p H P C H Q  .R ).z X G ).M z @.W I ` s w X s t B t z u R B Y v O r L y p u H v ",
"=.Y L L M I W X I x v =.s x s B H R R J ` t r A _.[.v u D u *.G @.R @.G U F J ` U ` D H F G J G s s r P t A u H L P L F @.r Q Y ",
"z t w v y G $.@.U U ` B E J C y w H P Q G z u &.T P p p w r A A p s p G s D z z R F v B H J E `  .X w F C R F Y J Q N O U X Q y ",
"x G r u C u s w *.*.*.t $.B H s w p w <.` X E P {.B $. .^.@.M M R G p I (.).r t R @.p B r x $.M R R R p B C J A w C Y P y z r F ",
"R X Q Y z J D r w H J U B v F Q D E D @.s r L w w z ` z $.M M M t x Q D G w x u X X u N F C p J v p @.D Q K v N Z H C C S C A v ",
"C G B v @.s H u C @.z J w J K O J I w -.>.r Q W @.W G E p E U D t y R F x |.` W X X t %.L Q p r Z y r u z r Q L C =.A w v H z Q ",
"w R F Q J p J E r Q R U *.X Z F J R s ` x X B $.^.X X z B A R z E G F t F p I $.@.*.J Y w v u t r z r R D J Q w C Y Z Y =.L s B ",
"u r Z R X J G D ).F r p @.u s u v s t p E @.A C s x $.D U U x u J A B Q O C Q R $.I X z P @.p M Y x x U w t p B A B N T Z Y r ` ",
"z H y X x R B R t u C p z D t u u R s z M u F r v p L s p %.F >.M R @.` p G $.}.1.-.*.G s Y Y Q z t F s w t s r B t A L p A B s ",
"D H F A w J s A v D H E r B w p s Y z z ).E ).r y z C s H C H ` R x *.).@. .J z D E x R w Q y J y H G z F D y y p F p s R B G I ",
"u Z u B ` x p u L D B u Y v F B L u B w y x X J r E r y R t p E R M U D ).R <.|.$.U E x A #.G I r L J w R D R t D z L p B @.$.W ",
"F P z w ).U M F O y H P Y L O r y z p L r s X x s '.'.w I G D $.J A w s w ^.<.>.U D s p F r J G D r u t w D C w F r O t t u Q y ",
"p Q s t X I J B C v Z F O Z s r F Z M @.` ).t D r y p R ` D H w Q y u D B s p z z A x D @.y Z U I r w z z x w C t t Y v B t F r ",
"r H z w u t @.u K A Q H A y y L t s @.I X G z Q J x M *.x X E J s R z R p s Q C v O u p p P P A x t r t L D U Q H F Q Y O H B s ",
"Q F u x u v p Q v t =.C u p P y z M I ^./.;.^.G <.^.W ` @.F p J ` @.$.u s B J C L Y p P Z w B Q R J J D N x R u Q F y B v H G F ",
"R p p y Q r B x F B s C C F y B x X x ` $.E ).@.M M J @.@.@.p v u X t ` Q F D y H B J p L y s u *.t w D P p D x @.Q C H v B x r ",
"G H N y p P R z w p u s O y w D U J M ` W G M D *.M s X X ` t u z t ).E J w D J z s F t D ` p u G G v t Z G X z @.X G u z p H H ",
"E H u v B M W D r s w C A Y w ).@.W ..~.|.D p B p w J u R G v z $.s z w H r J r x Q F p U p F @.u F u Q F s r y t M s y D B C B ",
"C v u w B X G U s s J B H Q r $.U @.I x U D r %.Q u X X F B r X R Q R R J G u t r B H s G x s z D H A u r y R Q C A r u P r B r ",
"H A w L x Q ` ..p G u R H J D U W R Q w R M ;.t s Q A ` s E z ^.<.C X s E ` W X w B p z r Q t s L F Q R s K @.z C A H Y u Q H s ",
"v C E z B R R G X F z L Z F R B  .B B z ).F M J p u z F r B A ).u y p t ` X *.x u D x t D F C Q J D J u r H C A B A B P H C H Q ",
"@.w @.E Q L x G r P B D F v O z @.v r F u Q @.x G t s t L A `  .E R t A x G ` -. .C s u H v s D L D x G A &.O v Z Z O H C L u Y "};
