/* XPM */
static char * ground_64_64_xpm[] = {
"64 64 125 2",
"  	c #29231C",
". 	c #2A2118",
"+ 	c #2A2218",
"@ 	c #2B2219",
"# 	c #2B2218",
"$ 	c #292118",
"% 	c #292117",
"& 	c #292017",
"* 	c #2A2219",
"= 	c #2B231A",
"- 	c #2A2117",
"; 	c #2A221A",
"> 	c #292018",
", 	c #221C17",
"' 	c #201A14",
") 	c #1C1A18",
"! 	c #28231E",
"~ 	c #261F19",
"{ 	c #282019",
"] 	c #261E16",
"^ 	c #261F17",
"/ 	c #28211A",
"( 	c #282119",
"_ 	c #211E1B",
": 	c #27221E",
"< 	c #25201B",
"[ 	c #201A13",
"} 	c #26211C",
"| 	c #272018",
"1 	c #28221B",
"2 	c #251E15",
"3 	c #29221B",
"4 	c #2A231D",
"5 	c #271F17",
"6 	c #292119",
"7 	c #282018",
"8 	c #261F18",
"9 	c #2B2621",
"0 	c #26201A",
"a 	c #27211B",
"b 	c #231D16",
"c 	c #251F19",
"d 	c #221B14",
"e 	c #231C15",
"f 	c #28221C",
"g 	c #29231E",
"h 	c #241D16",
"i 	c #241E17",
"j 	c #241E18",
"k 	c #28231F",
"l 	c #27231F",
"m 	c #202020",
"n 	c #181818",
"o 	c #1E1E1E",
"p 	c #0B0B0B",
"q 	c #212121",
"r 	c #1C1C1C",
"s 	c #211F1D",
"t 	c #242221",
"u 	c #1B1816",
"v 	c #1D1B1A",
"w 	c #1A1816",
"x 	c #181513",
"y 	c #1D1B19",
"z 	c #242424",
"A 	c #272727",
"B 	c #0E0E0E",
"C 	c #1A1A1A",
"D 	c #090909",
"E 	c #151515",
"F 	c #131313",
"G 	c #1B1B1B",
"H 	c #252525",
"I 	c #171717",
"J 	c #2A2A2A",
"K 	c #0C0C0C",
"L 	c #191919",
"M 	c #1F1F1F",
"N 	c #2B2B2B",
"O 	c #2E2E2E",
"P 	c #1D1D1D",
"Q 	c #111111",
"R 	c #0F0F0F",
"S 	c #161616",
"T 	c #282828",
"U 	c #101010",
"V 	c #121212",
"W 	c #222222",
"X 	c #2A2623",
"Y 	c #262626",
"Z 	c #141414",
"` 	c #2C2C2C",
" .	c #232323",
"..	c #2D2D2D",
"+.	c #313131",
"@.	c #292929",
"#.	c #2F2F2F",
"$.	c #323232",
"%.	c #383838",
"&.	c #0D0D0D",
"*.	c #373737",
"=.	c #303030",
"-.	c #363636",
";.	c #333333",
">.	c #3B3B3B",
",.	c #070707",
"'.	c #343434",
").	c #444444",
"!.	c #0A0A0A",
"~.	c #080808",
"{.	c #060606",
"].	c #353535",
"^.	c #414141",
"/.	c #050505",
"(.	c #393939",
"_.	c #494949",
":.	c #3C3C3C",
"<.	c #3A3A3A",
"[.	c #3E3E3E",
"}.	c #424242",
"|.	c #040404",
"1.	c #404040",
"2.	c #3D3D3D",
"3.	c #454545",
"4.	c #010101",
"  . + + @ # + # + # # # # # # # # # @ # # # # @ $ % & & * = * $ $ = = + # # # @ @ + . . - . . . . . . @ = . . . + * % . @ @ @ * ",
"; > . , ' ) ! ~ . { ] ^ ^ /   ( _   : < [ , [ } / ] ] ^ ( | 1 2 3   4 5 6 7 ] 8 9 0 a 0 b 0 c d e d e f g a h i e j ^ / c ; # # ",
"k l m n o p q m r s t u v w x y z A r m B C D E F G H I C H J K C o L M F F E N O q M n D F I p P Q R G S T p U V W m n H U X # ",
"A Y Z H n F Z ` q o m V T M m I U L P V G T q E I E R r G G  .p n L E J n S o P T o I n S C S R E P F L Y M R D V m L m Z H q q ",
"n C G E S P S P A H ..N G +.Y z  .W o F N z ..q @.W F E W L F m ` C R q #. .S Z E E n r Z F B V V n n G S M n  .C Y I  .n M P m ",
"L q A q W R I F q $.` J T N z M @.Z P Y %.z ` m J C C P P P M  .N I S o m Z o U Z F V L K &.&.G  .n E G V n M ` z  .C G m n q P ",
"J M ` W J M E E A A A E  .I m E I z m ..*.=.T -.G  .E o z z M Z @.W E Z G q q V Z z m C C Q Q L B G n G z m P N +.z T  .m &.M E ",
"z o ;.=.;.=.o P L o L n P z q z F G m W %.*.J +.` @.C o W C P S I m m G m L T C z o ` n o Z V V E E P #.+.;.G H A T H Z P S P W ",
"C ` M m r z I n B R Q E Z P Y P n A J =. .>.T ` q V I n M ` r L R I r q I o #.=.z z I q M P V E I Q R M M  .m C S P n Q L m Z ,.",
"S o z m r U r q F Q r W @.I Y H P T @.'.m @.P N N H ..z @.Y E M F n Y I z Y Y @.A #.m C m H T I o W C m ` r G S Q n Z L R &.Z E ",
"Q C G @.m q z U P &.n L L G J I N W ).J K J O +.z m m G +.H P R F o =.W m o H  .A P J M n m ..m Y P Z I W W @.P n S r E q G L r ",
"Y C M S I r Z r I Z F q z n A  .$.J q V B W M o  .q z q M r C q L ..H J q ..r ` N ;. .#.M z P q m @.L !.S M O V T C N T P Z G n ",
"o p n n S q E o r B &.Q W T T #.P Y =.T I #.;.@.S o  .Q E &.&.K E z O q G W J m H M A o r U Z o V o ` F n F H @.` G #.O n Q V L ",
"V P z G E !.P M F R U Z C m P J M F I ` G r A o m o ~.~.C Q q C U r n W W L ..$.T B  .m E m G r G Q L F Q z ..q  . .O +.n Q o S ",
"F A o I T o n R Q J L Q o z n U p P Z E T G I M r o F {. .L r L S N W S G q ` +.J n ..+.N n F Z n L C F E I W  .C Z J z ..&.S R ",
"q C O O #.Y L U F C S n G G z V C I L r E m n L Z z W  .P q Q G A ].@.E K +.=.T P  .=.-.T M I Q F C m r n V N P I  .T A S H U L ",
"T -.;.J ..#.m N W q I L C C n  .M P W r m q m m r o m P C =.T @.^.=.P m Q `  .#.H z H T A q V P &.U W P S U P /.r m J L Q m n C ",
"F E z N ..z N A G C m C C M  .C #.O V z T H G o o P P G Y @.M @.O ;.q T Y W ;.T ..A P S r H L E q n V G q P r V S  .M o Q z n B ",
"S G L J (.T T J J P E n @.O B M z J r R W W @.W P C C G C C @.o Q N -.C -.-.O  . .T m m Q L  .C M M r &.B o F r P R E $.m o G K ",
"L o A A _.W ..'.+.C I W  . .G %.#...#.Y J P H q J q G !.M r z q  .z z A T :.-.O C P K G V A H P M P I G p Z U n E !.M G L S n r ",
"P #.` T *.O =.<.N ].P S T  ...;.H z C o '.z E G I E P M G C V L  .M ` ^.M T *.A S ,.G m T [.W o n z G E m r F U E B o K F R o M ",
"m M $. .T =.@.'.H #.q =.` V  .M U o C z H L r L E ,.E G P R G G U G m ..+.A ..=.n q I E W T ..T Y q P o o @.m G n K m S Q G M Q ",
"N @.(.S P ..@.+.r o Y ` ` n S E Z C W F q I Z r F W O G M O N -.N ,.V W #.Y H A R A Q  .N @.` N W H G V C I o E Q o r Y o n S B ",
"..T G K L N Y  .W C P P I Q M }.A p {.!.R n n Z U o o M n G q m P U V Q z Y P M L P W S m P z P A K W W I Q S m Y m C Z n V F &.",
"N P W r P '.N #.M B L I K !. .+.z Y ,./.&.L F I Q o G n r Q R S Y n &.U o G &.G {.o ;.q Z C Y Y Q F m n  .W S  .N H /.~.C F r m ",
"W q M P M H (.-.H n Z Y S @.T A #.m V U ~.L Q E p S n o H M V Q L S {. .n G I C J ` #.H J Z @.m q n W Z N I n m N ` W n m N T Y ",
"r n m T z M M $.z S Q V n ` P .. .#.A H F Q /.|.V G &.C W r G E M P V o L P L M Y F S +.z I G M E Z G m B G R W n H I E o $.@.J ",
"o L Y Y m ..@.N N A W W W o H L ` ..@.H C L C D r S E V o W I n U C L M r m m A z D &.V z Y A M V P r F U V U F z =.$.@.H z q H ",
"F I S S Y Y P J ` ` H I S T #.I ..*.+.n L C p I G p q z r z |.r Q z U M A Y C F V r n n H o W m B Z o @.o n E F L J ..z o z M q ",
"L R J n Y H J n ..n o S E !.;.E %.@.Z P n W I M U Z M I r n Q !.I  .V Y N q  .&.p Q P F o Y S P F U m F C V E C T  .-.F G Y r ` ",
"..M N q R z q Z W G @. .o o z Y H J T  .J '.~.E Z V F F m p n M G I ..B m r P S U n Z S I F A Z U Z M P C q r G M M q A W W W q ",
"$.;.<.J T U I H T ` o Y N (.E W m T  .z J A K A m I C I E Q E G U o W E G n o q r Z n V M B n C E I I r n O ..@. .U A T m A A B ",
"..U ` H ].P z ..P o r A m ..H N q W  .P T Y q r V G C F M S K n K V S L F {.F B V n B Q n F Z V n L V E P T  .o M A A E E I Z S ",
"W Q M W Z ` N Y r Z S ].z ` F ` n O M  .J m @.C S H N G D G E I P H P K D {.~.p ~.U V Q U S ~.|.!.U L p M M M @.z I L T z @.T o ",
"L M W O Y J A '.Y  .q ].N -.&.H I Y G  .N W z H L o  .O H W I W A H I D !.&.S L p S R I F r !.Q U I C U K M n C E n H M N @.I H ",
"z W W F C Y A P M q  .W N W M M C <.A C @.J ..V P G z A r G G J W P B &.p &.Z n Q S R Q P F n L M U L q V I M I C C L m E m Q z ",
"z ` J W M P P I  .n #.$.` o z G $.*.>.@.J '.-.P m M z @.q V W r Y F /.!.U &.B I p S D B F r L E m F n F L I o o &.r P U ,.Z I M ",
"@.A O H q F o  .P L -.-.z M F @.+.I A Z Z Y P H T ` I M ].q r (.P o V F V U p R E o B I Z F Q P n B r  .N V E G E Y G Q I I n L ",
"` H (.o o q P E P P 1.+.A ].z ` ].n C Y T T C Y S M V L -.G J ;.P L V E R p ~.K I n E n C Q G  .L F z Q M S B |./.r Q o S J n o ",
"].P C W A r L I n W <...'.<.T H J W z O ..T L K Z z I P T A m q I &.Q &.!.K R ,.I U o G P C n P F S A q o G G !.!.S M r P W N r ",
"+.I o C m q F Q B C ..z #.^.+.H +.=.@.@.J +.Z L W L S ;.C m Y L E R I ~.~.!.B ,.o G E U @.M P m q F M J +.L z E S R o r T P o ..",
"M N o S  . .n V r S W T A *.J ` J H M G z r E I n P N F C S V R U R R B G /.K B L W q K J E Q P ..A C G T R E o Z F G q N A r n ",
"r W Y r o m G C H q  . .A *.r E Z F m K M q B E E V R z W I {.W !.V V C q K U !.r Z T M L  .I M r @.S H ..S Q I Q V ,.J ..J @.Q ",
"I H W  .T z A E ` M W M z H C r r &.E F P  .Q C L o F q r C F L Q n Q ` F S V p G V I L T W H z J W r @. .F Q  .@.Q U C D J q z ",
"F Y C #.q N R Z Q A V Z G n z M I P o C N q F G C q r @.n r C C F n R U B n L Y U V S E z C W #.A  .P E ].W z Y  .n I L I M J P ",
"V E H A C C r M F K q B I C A F S n @.=.q H C E Q G L P L A z Z Z o F U p G V n Q F V C m r o Y #.m A M m P n M @.P U K B Q P @.",
"@.E q I N q S Q F Q O z n @.A r Y H T ].m r L W Z U I q !.r P z Q r o Z |.C I &.m S P o  .L E =.o Y q S Z Z Z p B Z C F C C V M ",
"L M q N r S G r W -.M #.L  .r Q Q W ].+.P  .L I F C K r &.C  .G E W z m K F B Q G o E A r C N W @.r V P F V  .M V o I P U I M P ",
"m A E o C ].+.H o M m E m G C o L n H H @.M r C E U E I Q S ..V Z z Y A L I Z F L M V n G S I I L P G K E q z J o M H E F P L n ",
"H r P I  .n o m W R Z o G z W L V @.N z q  .A L I I q F C I U n I Z C ..q n S F C Z E n K S m V n &.B U C J ` =.m T o Q U B S  .",
"N Y Y Q r n r Y C M $.G @.o q n P @.I L F A R E z P U U E I  .P S Z E U S S I B m n K E Q Q T o Z Y Y q =.` '.A #.W o O m M T ` ",
"P K q q o M M Z o r ` G G W q q r  .W G r Y L S z Y S S +.M M W S R V P z G F o C Z C L F q J @.q q ..A N ` 2.z @.O '.M V A A P ",
"R Z n S o n I L n z L Y L z z H C ~.S z r o n C F q Z q J O ` ` Y r I Y G C K n @.G C o W o '.` O ` W N T Y 3.H (.$.Y T R C M @.",
"U Z W W G A @.A J G O P E r B P C S z C n I n G C C F S z G z m o S Z m M r L  .W E  .S F S N $.I W M A ..N %. .-.[.Y ].r H ..r ",
"Q I A z E z *.M r  .@.P &.r  .P D B L I S R o L Q G R W L D G &.R R V Y o m Z K n U z G Y q J n !.z E $.+.S W +.` (.C r  .` =.S ",
"V G n Z L W ` m L o r  .r L U G F B W V U Z n E L C Z C Z n I &.I U V M E o G &.~.M ..m ..M P q q O O q H &.q z A ;.Y ].P z  .P ",
"B I I F Y o #.I E G C T I C V F E W F C L F p  .T G W o Q E S n r C A z @.Y E C &.P R ..n C ..J q N -.M @.Z o ;.+.H F z L  .o L ",
"B W n P z P F n C Q Q I q L U Z Q R Q L I Q C C z  .C E S I C G S C I n H P Y r Z M n S V T  ...P o H  .n P T ..'.].q &.p &.Z I ",
"Z Z I r M L &.n Z G G L P Z {.R q W Q S E Z W C L S L P n Z &.&.n M C W H P n Q q W V W I J z T  .M H E U q T H #.2.o U 4.{.S J ",
"L E P I J #.F p R o H M o E /.n V ~.n P Y Q q n E &.F Q M S B M q  .W  .z G T R n M F W r H W P A U z z @.H C J  .(.W F m !.n S ",
"I P L I G H R &.o P C q L L F n E n z #.C o S L r M o E z H V G P q  .o T A V q L n F P P L  .`  .r Y O Y G ` T ..(.N @. .L L o ",
"C n n r n r @.H U C q N m G M q L r r S C F H $.A I z o q q R P T Y q r z =.Y q P Z U P P r o H  .A z W M n J J o  .A -.` q o !.",
"C V z G S Z  .M r Z P :. .o M R m F q U E P W m F o E F Z R E H S L ` G A Y q C S Q V L C P  .q W ` M  .z I L Y I  .#.=.J z @. .",
"I M I I I A m E  .H {.;.A A ` P W P Z L U r '.G S m U I F Z &.o E E @.r %.@.` n E Q V n r C M W Y z G I J z C =.M =.+.P  .r Y P "};
