/* XPM */
static char * loss_xpm[] = {
"256 64 3 1",
" 	c None",
".	c #FFFFFF",
"+	c #FEFEFE",
"                                                                                                                                                                                                                                                                ",
"                                                                                                                                                                                                                                                                ",
"                                                                                                                                                                                                                                                                ",
"                                                                                                                                                                                                                                                                ",
"                                                                                                                                                                                                                                                                ",
"                                                                                                                                                                                                                                                                ",
"                                                                                                                                                                                                                                                                ",
"                                                                                                                                                                                                                                                                ",
"                                                                                                                                                                                                                                                                ",
"                                                                                                                                                                                                                                                                ",
"                                                                                                                                                                                                                                                                ",
"                                                                                                                                                                                                                                                                ",
"                                                                                                                                                                                                                                                                ",
"                                                                                                                                                                                                                                                                ",
"                                                                                                                                                                                                                                                                ",
"                                                                                                            .++++++++                           +++++++++                    +++++++++                                                                          ",
"                                                                      ........                           ++............+                     ++............+              ++............+                                                                       ",
"                                                                      ........                          +................+                 ++................+          ++................+                                                                     ",
"                                                                      ........                        +...................+.              +..................+         +..................+                                                                     ",
"                                                                      ........                       +.......................            +...................+        +...................+                                                                     ",
"                                                                      ........                      +........................+           ....................         ....................                                                                      ",
"                                                                      ........                     +..........................          +...................+        +...................+                                                                      ",
"                                                                      ........                    +.........++      +.........+         +.......+        +..+        +.......+        +..+                                                                      ",
"                                                                      ........                    +........+          +........+        .......+           +         .......+           +                                                                       ",
"                                                                      ........                   +........+            +........        .......+                     .......+                                                                                   ",
"                                                                      ........                   +.......+              ........+      +.......+                    +.......+                                                                                   ",
"                                                                      ........                   .......+               +........       .......+                     .......+                                                                                   ",
"                                                                      ........                  +.......+                ........       ........+                    ........+                                                                                  ",
"                                                                      ........                  +.......                 +.......       .........+                   .........+                                                                                 ",
"                                                                      ........                  .......+                 +.......+      +..........++                +..........++                                                                              ",
"                                                                      ........                  .......+                  .......+       .............+               .............+                                                                            ",
"                                                                      ........                  .......+                  .......+       +..............+             +..............+                                                                          ",
"                                                                      ........                  .......+                  .......+        +...............+            +...............+                                                                        ",
"                                                                      ........                  .......+                  .......+          +...............+            +...............+                                                                      ",
"                                                                      ........                  .......+                  .......+           ++..............+            ++..............+                                                                     ",
"                                                                      ........                  .......+                  .......+              +.............+              +.............+                                                                    ",
"                                                                      ........                  .......+                  .......+                ++..........+                ++..........+                                                                    ",
"                                                                      ........                  .......+                 +.......+                   +.........                   +.........                                                                    ",
"                                                                      ........                  +.......                 +.......+                    +........+                   +........+                                                                   ",
"                                                                      ........                  +.......+                ........                      +.......+                    +.......+                                                                   ",
"                                                                      ........                  +.......+               ........+                       ........                     ........                                                                   ",
"                                                                      ........                   ........+              ........+                       +.......                     +.......                                                                   ",
"                                                                      ........                   +........+            +........                        .......+                     .......+                                                                   ",
"                                                                      ........                    .........+          +........+         ++            +.......+      ++            +.......+                                                                   ",
"                                                                      .......................     +..........+      +.........+         +....+        .........+     +....+        .........+                                                                   ",
"                                                                      .......................      +..........................+         +......................      +......................                                                                    ",
"                                                                      .......................       +........................+          ......................+      ......................+                                                                    ",
"                                                                      .......................        +......................+          +......................      +......................                                                                     ",
"                                                                      .......................         +....................+           +.....................       +.....................                                                                      ",
"                                                                      .......................          ++................+             +...................+        +...................+                                                                       ",
"                                                                      .......................            ++............+                 ++..............++           ++..............++                                                                        ",
"                                                                                                            .++++++++                        +++.++++++                   +++.++++++                                                                            ",
"                                                                                                                                                                                                                                                                ",
"                                                                                                                                                                                                                                                                ",
"                                                                                                                                                                                                                                                                ",
"                                                                                                                                                                                                                                                                ",
"                                                                                                                                                                                                                                                                ",
"                                                                                                                                                                                                                                                                ",
"                                                                                                                                                                                                                                                                ",
"                                                                                                                                                                                                                                                                ",
"                                                                                                                                                                                                                                                                ",
"                                                                                                                                                                                                                                                                ",
"                                                                                                                                                                                                                                                                ",
"                                                                                                                                                                                                                                                                "};
