/* XPM */
static char * pulsar_xpm[] = {
"256 64 3 1",
" 	c None",
".	c #FEFEFE",
"+	c #FFFFFF",
"                                                                                                                                                                                                                                                                ",
"                                                                                                                                                                                                                                                                ",
"                                                                                                                                                                                                                                                                ",
"                                                                                                                                                                                                                                                                ",
"                                                                                                                                                                                                                                                                ",
"                                                                                                                                                                                                                                                                ",
"                                                                                                                                                                                                                                                                ",
"                                                                                                                                                                                                                                                                ",
"                                                                                                                                                                                                                                                                ",
"                                                                                                                                                                                                                                                                ",
"                                                                                                                                                                                                                                                                ",
"                                                                                                                                                                                                                                                                ",
"                                                                                                                          ...                                                                                                                                   ",
"                                                                                                                      .+++++.                                                                                                                                   ",
"                                                                                                                     +++++++.                                                                                                                                   ",
"                                                                                                                     +++++++.                                                                                                                                   ",
"                                                            ..+..........                                            +++++++.                                                                                                                                   ",
"                                                         ++++++++++++++++++..                                        +++++++.                                                                                                                                   ",
"                                                         +++++++++++++++++++++.                                      +++++++.                                                                                                                                   ",
"                                                         ++++++++++++++++++++++.                                     +++++++.                                                                                                                                   ",
"                                                         +++++++++++++++++++++++.                                    +++++++.                                                                                                                                   ",
"                                                         ++++++++++++++++++++++++.                                   +++++++.                                                                                                                                   ",
"                                                         +++++++++++++++++++++++++.                                  +++++++.                                                                                                                                   ",
"                                                         +++++++.       .+++++++++.                                  +++++++.                                                                                                                                   ",
"                                                         ++++++++         .++++++++                                  +++++++.              .........              ..........                   .........+                                                       ",
"                                                         ++++++++          .+++++++     +++++++.       +++++++.      +++++++.            .++++++++++++.       .++++++++++++++.             ..+++++++++++++                                                      ",
"                                                         ++++++++          .+++++++     +++++++.       +++++++.      +++++++.          .++++++++++++++.       .+++++++++++++++.          +++++++++++++++++                                                      ",
"                                                         ++++++++          .+++++++     +++++++.       +++++++.      +++++++.         .+++++++++++++++.        +++++++++++++++++         ++++++++++++++++.                                                      ",
"                                                         ++++++++          .+++++++     +++++++.       +++++++.      +++++++.         ++++++++++++++++         +++++++++++++++++.        ++++++++++++++++.                                                      ",
"                                                         ++++++++          .+++++++     +++++++.       +++++++.      +++++++.        .++++++++++++++++         ++++++++++++++++++.       ++++++++++++++++.                                                      ",
"                                                         ++++++++         .++++++++     +++++++.       +++++++.      +++++++.        ++++++++      ...         ..        ++++++++.       +++++++.       .                                                       ",
"                                                         ++++++++       ..++++++++.     +++++++.       +++++++.      +++++++.        +++++++                              .+++++++       +++++++.                                                               ",
"                                                         +++++++++++++++++++++++++      +++++++.       +++++++.      +++++++.        +++++++                               +++++++       +++++++.                                                               ",
"                                                         ++++++++++++++++++++++++.      +++++++.       +++++++.      +++++++.        +++++++.                              .++++++       +++++++.                                                               ",
"                                                         +++++++++++++++++++++++.       +++++++.       +++++++.      +++++++.        .+++++++..                            .++++++       +++++++.                                                               ",
"                                                         ++++++++++++++++++++++.        +++++++.       +++++++.      +++++++.        .++++++++++..                ..........++++++       +++++++.                                                               ",
"                                                         ++++++++++++++++++++.+         +++++++.       +++++++.      +++++++.         +++++++++++++.            .+++++++++++++++++       +++++++.                                                               ",
"                                                         ++++++++++++++++++..           +++++++.       +++++++.      +++++++.         .++++++++++++++.        .+++++++++++++++++++       +++++++.                                                               ",
"                                                         ++++++++++......               +++++++.       +++++++.      +++++++.          .++++++++++++++.      .++++++++++++++++++++       +++++++.                                                               ",
"                                                         ++++++++                       .++++++.       +++++++.      +++++++.            .+++++++++++++      +++++++++++++++++++++       +++++++.                                                               ",
"                                                         ++++++++                       .++++++.       +++++++.      +++++++.              ..++++++++++.    .+++++++.      .++++++       +++++++.                                                               ",
"                                                         ++++++++                       .++++++.       +++++++.      +++++++.                 .++++++++.    +++++++.       +++++++       +++++++.                                                               ",
"                                                         ++++++++                       .++++++.       +++++++.      .+++++++                   .+++++++    +++++++        +++++++       +++++++.                                                               ",
"                                                         ++++++++                        +++++++       +++++++.       +++++++                    +++++++    +++++++        +++++++       +++++++.                                                               ",
"                                                         ++++++++                        +++++++.      +++++++.       +++++++.                   +++++++    ++++++++       +++++++       +++++++.                                                               ",
"                                                         ++++++++                        .+++++++.     .++++++.       ++++++++.      .+..       .++++++.    .++++++..      +++++++       +++++++.                                                               ",
"                                                         ++++++++                        .++++++++++++++++++++.       .+++++++++.    ++++++++++++++++++.    .+++++++++++++++++++++       +++++++.                                                               ",
"                                                         ++++++++                         .+++++++++++++++++++.       .+++++++++.    ++++++++++++++++++      +++++++++++++++++++++       +++++++.                                                               ",
"                                                         ++++++++                          .++++++++++++++++++.        .++++++++.   .+++++++++++++++++.      .++++++++++++++++++++       +++++++.                                                               ",
"                                                         ++++++++                           .+++++++++++++++++.         .+++++++    .++++++++++++++++.        .+++++++++++++++++++       +++++++.                                                               ",
"                                                         ++++++++                            .+++++++++++++++..          .++++++    ..+++++++++++++.            .++++++++++++++++.       +++++++.                                                               ",
"                                                                                               ......+....                 ...+.        ..........                ............                                                                                  ",
"                                                                                                                                                                                                                                                                ",
"                                                                                                                                                                                                                                                                ",
"                                                                                                                                                                                                                                                                ",
"                                                                                                                                                                                                                                                                ",
"                                                                                                                                                                                                                                                                ",
"                                                                                                                                                                                                                                                                ",
"                                                                                                                                                                                                                                                                ",
"                                                                                                                                                                                                                                                                ",
"                                                                                                                                                                                                                                                                ",
"                                                                                                                                                                                                                                                                ",
"                                                                                                                                                                                                                                                                ",
"                                                                                                                                                                                                                                                                "};
