/* XPM */
static char * win_xpm[] = {
"256 64 3 1",
" 	c None",
".	c #FEFEFE",
"+	c #FFFFFF",
"                                                                                                                                                                                                                                                                ",
"                                                                                                                                                                                                                                                                ",
"                                                                                                                                                                                                                                                                ",
"                                                                                                                                                                                                                                                                ",
"                                                                                                                                                                                                                                                                ",
"                                                                                                                                                                                                                                                                ",
"                                                                                                                                                                                                                                                                ",
"                                                                                                                                                                                                                                                                ",
"                                                                                                                                                                                                                                                                ",
"                                                                                                                                                                                                                                                                ",
"                                                                                                                                                                                                                                                                ",
"                                                                                                                                                                                                                                                                ",
"                                                                                                                                                                                                                                                                ",
"                                                                                                                                                                                                                                                                ",
"                                                                                                                                                                                                                                                                ",
"                                                                                                                                                                                                                                                                ",
"                                                                               .+++++++.                            .+++++++     ++++++++        ++++++.               .+++++++                                                                                 ",
"                                                                               .+++++++.                            .+++++++     ++++++++        +++++++.              .+++++++                                                                                 ",
"                                                                                +++++++.                            +++++++.     ++++++++        ++++++++.             .+++++++                                                                                 ",
"                                                                                ++++++++                            +++++++.     ++++++++        +++++++++             .+++++++                                                                                 ",
"                                                                                .+++++++          .++++++           +++++++      ++++++++        +++++++++.            .+++++++                                                                                 ",
"                                                                                .+++++++          .++++++.         .+++++++      ++++++++        ++++++++++.           .+++++++                                                                                 ",
"                                                                                .+++++++.         .++++++.         .++++++.      ++++++++        +++++++++++.          .+++++++                                                                                 ",
"                                                                                 +++++++.         ++++++++         .++++++.      ++++++++        ++++++++++++.         .+++++++                                                                                 ",
"                                                                                 +++++++.        .++++++++.        +++++++.      ++++++++        +++++++++++++         .+++++++                                                                                 ",
"                                                                                 .+++++++        .++++++++.        +++++++       ++++++++        +++++++++++++.        .+++++++                                                                                 ",
"                                                                                 .+++++++        ++++++++++       .+++++++       ++++++++        ++++++++++++++.       .+++++++                                                                                 ",
"                                                                                  +++++++.       ++++++++++       .++++++.       ++++++++        +++++++++++++++.      .+++++++                                                                                 ",
"                                                                                  +++++++.      .++++++++++.      .++++++.       ++++++++        +++++++..+++++++      .+++++++                                                                                 ",
"                                                                                  .++++++.      .++++++++++.      +++++++        ++++++++        +++++++. .++++++.     .+++++++                                                                                 ",
"                                                                                  .+++++++      +++++.++++++      +++++++        ++++++++        +++++++.  .++++++.    .+++++++                                                                                 ",
"                                                                                  .+++++++     .+++++ .+++++.    .++++++.        ++++++++        +++++++.   +++++++    .+++++++                                                                                 ",
"                                                                                   +++++++.    .++++. .+++++.    .++++++.        ++++++++        +++++++.   .++++++.   .+++++++                                                                                 ",
"                                                                                   .++++++.    +++++.  ++++++    .++++++         ++++++++        +++++++.    .++++++.  .+++++++                                                                                 ",
"                                                                                   .++++++.    +++++   .+++++.   +++++++         ++++++++        +++++++.     .++++++. .+++++++                                                                                 ",
"                                                                                   .+++++++   .++++.   .+++++.   ++++++.         ++++++++        +++++++.     .++++++. .+++++++                                                                                 ",
"                                                                                    +++++++   .++++.    ++++++  .++++++.         ++++++++        +++++++.      .++++++..+++++++                                                                                 ",
"                                                                                    .++++++.  +++++     ++++++  +++++++          ++++++++        +++++++.       .++++++++++++++                                                                                 ",
"                                                                                    .++++++. .+++++     .+++++. .++++++          ++++++++        +++++++.        ++++++++++++++                                                                                 ",
"                                                                                     +++++++ .++++.     .+++++. ++++++.          ++++++++        +++++++.        .+++++++++++++                                                                                 ",
"                                                                                     +++++++.+++++.      ++++++.++++++.          ++++++++        +++++++.         .++++++++++++                                                                                 ",
"                                                                                     .++++++++++++       .++++++++++++           ++++++++        +++++++.          ++++++++++++                                                                                 ",
"                                                                                     .+++++++++++.       .+++++++++++.           ++++++++        +++++++.          .+++++++++++                                                                                 ",
"                                                                                      +++++++++++.        +++++++++++.           ++++++++        +++++++.           .++++++++++                                                                                 ",
"                                                                                      .++++++++++         .++++++++++            ++++++++        +++++++.           .++++++++++                                                                                 ",
"                                                                                      .+++++++++.         .++++++++++            ++++++++        +++++++.            .+++++++++                                                                                 ",
"                                                                                       +++++++++.          +++++++++.            ++++++++        +++++++.             +++++++++                                                                                 ",
"                                                                                       +++++++++           .++++++++.            ++++++++        +++++++.             .++++++++                                                                                 ",
"                                                                                       .+++++++.           .++++++++             ++++++++        +++++++.              .+++++++                                                                                 ",
"                                                                                       .+++++++.            +++++++.             ++++++++        +++++++.              .+++++++                                                                                 ",
"                                                                                        +++++++             .++++++.             ++++++++        +++++++.               .++++++                                                                                 ",
"                                                                                                                                                                                                                                                                ",
"                                                                                                                                                                                                                                                                ",
"                                                                                                                                                                                                                                                                ",
"                                                                                                                                                                                                                                                                ",
"                                                                                                                                                                                                                                                                ",
"                                                                                                                                                                                                                                                                ",
"                                                                                                                                                                                                                                                                ",
"                                                                                                                                                                                                                                                                ",
"                                                                                                                                                                                                                                                                ",
"                                                                                                                                                                                                                                                                ",
"                                                                                                                                                                                                                                                                ",
"                                                                                                                                                                                                                                                                ",
"                                                                                                                                                                                                                                                                "};
