/* XPM */
static char * exit_1_xpm[] = {
"150 75 3 1",
" 	c None",
".	c #FEFEFE",
"+	c #FFFFFF",
"                                                                                                                                                      ",
"                                                                                                                                                      ",
"                                                                                                                                                      ",
"                                                                                                                                                      ",
"                                                                                                                                                      ",
"                                                                                                                                                      ",
"                                                                                                                                                      ",
"                                                                                                                                                      ",
"                                                                                                                                                      ",
"                                                                                                                                                      ",
"                                                                                                                                                      ",
"                                                                                                                                                      ",
"                                                                                                                                                      ",
"                                                                                                                                                      ",
"                                                                                                                                                      ",
"                                                                                                                                                      ",
"                                                                                                                                                      ",
"                                                                                                                                                      ",
"                                                                                                                                                      ",
"                                                                                                                                                      ",
"                  .+++++++++++++++++++++++++     .+++++++++.              .++++++++.     .+++++++.     .++++++++++++++++++++++++++++++.               ",
"                  .+++++++++++++++++++++++++      .+++++++++             .++++++++.      .+++++++.     .++++++++++++++++++++++++++++++.               ",
"                  .+++++++++++++++++++++++++       .++++++++.           ++++++++++       .+++++++.     .++++++++++++++++++++++++++++++.               ",
"                  .+++++++++++++++++++++++++       .+++++++++.          .++++++++.       .+++++++.     .++++++++++++++++++++++++++++++.               ",
"                  .+++++++++++++++++++++++++        .+++++++++         .++++++++.        .+++++++.     .++++++++++++++++++++++++++++++.               ",
"                  .+++++++++++++++++++++++++         +++++++++.       .++++++++.         .+++++++.     .++++++++++++++++++++++++++++++.               ",
"                  .+++++++++++++++++++++++++         .+++++++++.      .++++++++.         .+++++++.     .++++++++++++++++++++++++++++++.               ",
"                  .+++++++.                           .+++++++++     .++++++++.          .+++++++.                 ++++++++                           ",
"                  .+++++++.                            +++++++++.   .++++++++.           .+++++++.                 ++++++++                           ",
"                  .+++++++.                            .+++++++++.  .++++++++.           .+++++++.                 ++++++++                           ",
"                  .+++++++.                             .+++++++++ .++++++++.            .+++++++.                 ++++++++                           ",
"                  .+++++++.                              ++++++++++++++++++.             .+++++++.                 ++++++++                           ",
"                  .+++++++.                              .+++++++++++++++++.             .+++++++.                 ++++++++                           ",
"                  .+++++++.                               .+++++++++++++++.              .+++++++.                 ++++++++                           ",
"                  .+++++++.                                ++++++++++++++.               .+++++++.                 ++++++++                           ",
"                  .+++++++++++++++++++++++                 ++++++++++++++.               .+++++++.                 ++++++++                           ",
"                  .+++++++++++++++++++++++                  .+++++++++++.                .+++++++.                 ++++++++                           ",
"                  .+++++++++++++++++++++++                   ++++++++++.                 .+++++++.                 ++++++++                           ",
"                  .+++++++++++++++++++++++                   .+++++++++.                 .+++++++.                 ++++++++                           ",
"                  .+++++++++++++++++++++++                   .++++++++++                 .+++++++.                 ++++++++                           ",
"                  .+++++++++++++++++++++++                  .+++++++++++.                .+++++++.                 ++++++++                           ",
"                  .+++++++++++++++++++++++                  +++++++++++++.               .+++++++.                 ++++++++                           ",
"                  .+++++++.                                .++++++++++++++.              .+++++++.                 ++++++++                           ",
"                  .+++++++.                               .++++++++++++++++              .+++++++.                 ++++++++                           ",
"                  .+++++++.                              .+++++++++++++++++.             .+++++++.                 ++++++++                           ",
"                  .+++++++.                              +++++++++++++++++++.            .+++++++.                 ++++++++                           ",
"                  .+++++++.                             .++++++++. .+++++++++            .+++++++.                 ++++++++                           ",
"                  .+++++++.                            .++++++++.   +++++++++.           .+++++++.                 ++++++++                           ",
"                  .+++++++.                            +++++++++    .+++++++++.          .+++++++.                 ++++++++                           ",
"                  .+++++++.                           .++++++++.     .+++++++++          .+++++++.                 ++++++++                           ",
"                  .+++++++.                          .++++++++.       .++++++++.         .+++++++.                 ++++++++                           ",
"                  .++++++++++++++++++++++++++        +++++++++         +++++++++.        .+++++++.                 ++++++++                           ",
"                  .++++++++++++++++++++++++++       .++++++++.         .+++++++++        .+++++++.                 ++++++++                           ",
"                  .++++++++++++++++++++++++++      .+++++++++           +++++++++.       .+++++++.                 ++++++++                           ",
"                  .++++++++++++++++++++++++++      +++++++++            .+++++++++.      .+++++++.                 ++++++++                           ",
"                  .++++++++++++++++++++++++++     .++++++++.             .++++++++.      .+++++++.                 ++++++++                           ",
"                  .++++++++++++++++++++++++++    .++++++++.              .+++++++++.     .+++++++.                 ++++++++                           ",
"                  .++++++++++++++++++++++++++    .++++++++.               .+++++++++     .+++++++.                 ++++++++                           ",
"                                                                                                                                                      ",
"                                                                                                                                                      ",
"                                                                                                                                                      ",
"                                                                                                                                                      ",
"                                                                                                                                                      ",
"                                                                                                                                                      ",
"                                                                                                                                                      ",
"                                                                                                                                                      ",
"                                                                                                                                                      ",
"                                                                                                                                                      ",
"                                                                                                                                                      ",
"                                                                                                                                                      ",
"                                                                                                                                                      ",
"                                                                                                                                                      ",
"                                                                                                                                                      ",
"                                                                                                                                                      ",
"                                                                                                                                                      "};
