/* XPM */
static char * play_1_xpm[] = {
"128 64 3 1",
" 	c None",
".	c #FFFFFF",
"+	c #FEFEFE",
"                                                                                                                                ",
"                                                                                                                                ",
"                                                                                                                                ",
"                                                                                                                                ",
"                                                                                                                                ",
"                                                                                                                                ",
"                                                                                                                                ",
"                                                                                                                                ",
"                                                                                                                                ",
"                                                                                                                                ",
"                                                                                                                                ",
"                                                                                                                                ",
"                                                                                                                                ",
"                                                                                                                                ",
"                                                                                                                                ",
"                                                                                                                                ",
"                                                                                                                                ",
"                                                                                                                                ",
"            ..+++++++++++               .......                             ......+        +........             .......        ",
"           ................++           .......                            +.......         +......+            +......+        ",
"           ..................++         .......                            ........+         .......+           ......+         ",
"           .....................        .......                           +.........         +......+          +.......         ",
"           .....................+       .......                           ..........+         .......+        +......+          ",
"           ......................       .......                          +..........+         +......+        +......+          ",
"           ......+      ++.......+      .......                          +...........+         .......+      +.......           ",
"           .......        +......+      .......                         +.....+......+         +.......      +......            ",
"           .......         .......      .......                         +.....  ......          +......+    .......+            ",
"           .......         .......      .......                         .....+  +.....+         +.......    .......             ",
"           .......         +......      .......                        +.....+  +......          +......+  +......+             ",
"           .......         +......      .......                        ......    +......          .......++......+              ",
"           .......         .......      .......                       +.....+    +.....+          ........+.......              ",
"           .......        +......+      .......                       +.....+     ......           +............+               ",
"           .......      ++.......+      .......                       .....+      +.....+          +............                ",
"           ......................       .......                      +.....+       ......           +..........+                ",
"           .....................+       .......                      ......        +.....+           .........+                 ",
"           ....................+        .......                     +.....+        +.....+           +........                  ",
"           ..................++         .......                     +.....................            +.......                  ",
"           ................++           .......                     ......................+           .......                   ",
"           .........+++++               .......                    +.......................           +......                   ",
"           .......                      .......                    +.......................+          +......                   ",
"           .......                      .......                   .........................+          +......                   ",
"           .......                      .......                   +.........................          +......                   ",
"           .......                      .......                   ......+            +......+         +......                   ",
"           .......                      ....................     +......+             ......+         +......                   ",
"           .......                      ....................     +......              +......         +......                   ",
"           .......                      ....................     ......+              +......+        +......                   ",
"           .......                      ....................    .......+               ......+        +......                   ",
"           .......                      ....................    +......                +......        +......                   ",
"           .......                      ....................    ......+                +......+       +......                   ",
"                                                                                                                                ",
"                                                                                                                                ",
"                                                                                                                                ",
"                                                                                                                                ",
"                                                                                                                                ",
"                                                                                                                                ",
"                                                                                                                                ",
"                                                                                                                                ",
"                                                                                                                                ",
"                                                                                                                                ",
"                                                                                                                                ",
"                                                                                                                                ",
"                                                                                                                                ",
"                                                                                                                                ",
"                                                                                                                                "};
