/* XPM */
static char * play_2_xpm[] = {
"150 75 14 1",
" 	c None",
".	c #E56B39",
"+	c #E36C38",
"@	c #E46B39",
"#	c #E56B38",
"$	c #E46B38",
"%	c #E36B38",
"&	c #E46C39",
"*	c #E56C39",
"=	c #E46C38",
"-	c #E56C38",
";	c #E56A38",
">	c #E46A38",
",	c #E36B39",
"                                                                                                                                                      ",
"                                                                                                                                                      ",
"                                                                                                                                                      ",
"                                                                                                                                                      ",
"                                                                                                                                                      ",
"                                                                                                                                                      ",
"                                                                                                                                                      ",
"                                                                                                                                                      ",
"                                                                                                                                                      ",
"                                                                                                                                                      ",
"                                                                                                                                                      ",
"                                                                                                                                                      ",
"                                                                                                                                                      ",
"                                                                                                                                                      ",
"                                                                                                                                                      ",
"                                                                                                                                                      ",
"                                                                                                                                                      ",
"                                                                                                                                                      ",
"                                                                                                                                                      ",
"                                                                                                                                                      ",
"             .+@#$$$#@#@$%&$                 #*******=                                   =*******&           *********                *********$      ",
"          #*******************@+             #*******=                                   $********$          -********&               $********       ",
"          #**********************=           #*******=                                   *********#           *********              @********=       ",
"          #************************@         #*******=                                  $**********;          @********@             *********        ",
"          #*************************$        #*******=                                  ***********$           *********            *********@        ",
"          #**************************>       #*******=                                 $************           =********$           @*******@         ",
"          #***************************       #*******=                                 *************@           *********#         -*********         ",
"          #*******=        ,&**********      #*******=                                ,**************           ,********$         ********@          ",
"          #*******=          $********$      #*******=                                *******%********           $********$       $********=          ",
"          #*******=           .********      #*******=                               -******* $*******           *********@       ********-           ",
"          #*******=           *********      #*******=                               $******= &*******$           *********#     #********            ",
"          #*******=            ********      #*******=                               *******#  *******.            *********    @********@            ",
"          #*******=            ********      #*******=                              &*******   @*******            @********$   &*******&             ",
"          #*******=            ********      #*******=                              *******=    *******&            *********& #*********             ",
"          #*******=           $********      #*******=                             @*******     .*******            &********.=*********              ",
"          #*******=           =********      #*******=                             .******=     #*******&            $*****************               ",
"          #*******=          $*********      #*******=                             *******&      *******@             *****************               ",
"          #*******=       ,$**********&      #*******=                            $*******       $*******,            ****************                ",
"          #**************************$       #*******=                            *******$       .*******$             **************>                ",
"          #**************************$       #*******=                           =*******,        ********             $************$                 ",
"          #*************************@        #*******=                           #*******         $*******@             $***********                  ",
"          #*************************         #*******=                           *******$          *******=              **********.                  ",
"          #**********************#           #*******=                          ********           @*******              @********=                   ",
"          #*******************@*             #*******=                          ***************************$              ********$                   ",
"          #***********=&@$@.                 #*******=                         @****************************              ********.                   ",
"          #*******=                          #*******=                         $****************************#             ********.                   ",
"          #*******=                          #*******=                         *****************************#             ********.                   ",
"          #*******=                          #*******=                        =******************************             ********.                   ",
"          #*******=                          #*******=                        *******************************#            ********.                   ",
"          #*******=                          #*******=                        *******************************$            ********.                   ",
"          #*******=                          #*******=                       =*******=               -********            ********.                   ",
"          #*******=                          #************************$      ********#                ********&           ********.                   ",
"          #*******=                          #************************$     #********                 *********           ********.                   ",
"          #*******=                          #************************$     $*******#                 $*********          ********.                   ",
"          #*******=                          #************************$     ********>                  ********=          ********.                   ",
"          #*******=                          #************************$    &********                   @********          ********.                   ",
"          #*******=                          #************************$    =*******-                   #********@         ********.                   ",
"          #*******=                          #************************$    ********-                    ********$         ********.                   ",
"                                                                                                                                                      ",
"                                                                                                                                                      ",
"                                                                                                                                                      ",
"                                                                                                                                                      ",
"                                                                                                                                                      ",
"                                                                                                                                                      ",
"                                                                                                                                                      ",
"                                                                                                                                                      ",
"                                                                                                                                                      ",
"                                                                                                                                                      ",
"                                                                                                                                                      ",
"                                                                                                                                                      ",
"                                                                                                                                                      ",
"                                                                                                                                                      ",
"                                                                                                                                                      ",
"                                                                                                                                                      ",
"                                                                                                                                                      "};
