/* XPM */
static char * play_1_xpm[] = {
"150 75 3 1",
" 	c None",
".	c #FFFFFF",
"+	c #FEFEFE",
"                                                                                                                                                      ",
"                                                                                                                                                      ",
"                                                                                                                                                      ",
"                                                                                                                                                      ",
"                                                                                                                                                      ",
"                                                                                                                                                      ",
"                                                                                                                                                      ",
"                                                                                                                                                      ",
"                                                                                                                                                      ",
"                                                                                                                                                      ",
"                                                                                                                                                      ",
"                                                                                                                                                      ",
"                                                                                                                                                      ",
"                                                                                                                                                      ",
"                                                                                                                                                      ",
"                                                                                                                                                      ",
"                                                                                                                                                      ",
"                                                                                                                                                      ",
"                                                                                                                                                      ",
"                                                                                                                                                      ",
"             .++++++++++++++                 +.......+                                   +.......+           .........                .........+      ",
"          +...................++             +.......+                                   +........+          +........+               +........       ",
"          +......................+           +.......+                                   .........+           .........              +........+       ",
"          +........................+         +.......+                                  +..........+          +........+             +........        ",
"          +.........................+        +.......+                                  ...........+           .........            .........+        ",
"          +..........................+       +.......+                                 +............           +........+           +.......+         ",
"          +...........................       +.......+                                 .............+           .........+         +.........         ",
"          +.......+        ++.........+      +.......+                                +..............           +........+         ........+          ",
"          +.......+          +........+      +.......+                                .......+.......+           +........+       +........+          ",
"          +.......+           +........      +.......+                               +....... +.......           +........+       ........+           ",
"          +.......+           .........      +.......+                               +......+ +.......+           .........+     +........            ",
"          +.......+            ........      +.......+                               .......+  .......+            .........    +.........            ",
"          +.......+            ........      +.......+                              +.......   +.......            +........+   +.......+             ",
"          +.......+            ........      +.......+                              .......+    .......+            .........+ +.........             ",
"          +.......+           +........      +.......+                             +.......     +.......            +........+..........              ",
"          +.......+           +........      +.......+                             +......+     +.......+            +.................               ",
"          +.......+          +.........      +.......+                             .......+      .......+             ................+               ",
"          +.......+       ++..........+      +.......+                            +.......       +.......+            +...............                ",
"          +..........................+       +.......+                            .......+       +.......+             ..............+                ",
"          +..........................+       +.......+                           +.......+        ........             +............+                 ",
"          +.........................+        +.......+                           +.......         +.......+             +...........                  ",
"          +........................+         +.......+                           .......+          .......+              ..........+                  ",
"          +......................+           +.......+                          +.......           +.......              .........+                   ",
"          +...................++             +.......+                          ...........................+              ........+                   ",
"          +...........++++++                 +.......+                         +............................              .........                   ",
"          +.......+                          +.......+                         +............................+             .........                   ",
"          +.......+                          +.......+                         .............................+             .........                   ",
"          +.......+                          +.......+                        +..............................             .........                   ",
"          +.......+                          +.......+                        +..............................+            .........                   ",
"          +.......+                          +.......+                        ...............................+            .........                   ",
"          +.......+                          +.......+                       +.......+               +........            .........                   ",
"          +.......+                          +........................+      ........+                ........+           .........                   ",
"          +.......+                          +........................+     +........                 .........           .........                   ",
"          +.......+                          +........................+     +.......+                 +........+          .........                   ",
"          +.......+                          +........................+     ........+                  ........+          .........                   ",
"          +.......+                          +........................+    +........                   +........          .........                   ",
"          +.......+                          +........................+    +.......+                   +........+         .........                   ",
"          +.......+                          +........................+    ........+                    ........+         .........                   ",
"                                                                                                                                                      ",
"                                                                                                                                                      ",
"                                                                                                                                                      ",
"                                                                                                                                                      ",
"                                                                                                                                                      ",
"                                                                                                                                                      ",
"                                                                                                                                                      ",
"                                                                                                                                                      ",
"                                                                                                                                                      ",
"                                                                                                                                                      ",
"                                                                                                                                                      ",
"                                                                                                                                                      ",
"                                                                                                                                                      ",
"                                                                                                                                                      ",
"                                                                                                                                                      ",
"                                                                                                                                                      ",
"                                                                                                                                                      "};
