/* XPM */
static char * play_2_xpm[] = {
"128 64 13 1",
" 	c None",
".	c #E96B37",
"+	c #E86C37",
"@	c #E86B37",
"#	c #E96C37",
"$	c #E86B38",
"%	c #E96B38",
"&	c #E96C38",
"*	c #E86C38",
"=	c #E96A38",
"-	c #E76B37",
";	c #E76A37",
">	c #E76B38",
"                                                                                                                                ",
"                                                                                                                                ",
"                                                                                                                                ",
"                                                                                                                                ",
"                                                                                                                                ",
"                                                                                                                                ",
"                                                                                                                                ",
"                                                                                                                                ",
"                                                                                                                                ",
"                                                                                                                                ",
"                                                                                                                                ",
"                                                                                                                                ",
"                                                                                                                                ",
"                                                                                                                                ",
"                                                                                                                                ",
"                                                                                                                                ",
"                                                                                                                                ",
"                                                                                                                                ",
"            .+@+@+#$%..++               &&&&&&+                             &&&&&&+        .&&&&&&&+             &&&&&&&        ",
"           &&&&&&&&&&&&&&&&@.           &&&&&&+                            *&&&&&&&         .&&&&&&+            @&&&&&&@        ",
"           &&&&&&&&&&&&&&&&&&$@         &&&&&&+                            &&&&&&&&@         &&&&&&&.           &&&&&&*         ",
"           &&&&&&&&&&&&&&&&&&&&$        &&&&&&+                           %&&&&&&&&&         @&&&&&&$          @&&&&&&+         ",
"           &&&&&&&&&&&&&&&&&&&&&@       &&&&&&+                           &&&&&&&&&&*         &&&&&&&%        =&&&&&&+          ",
"           &&&&&&&&&&&&&&&&&&&&&&       &&&&&&+                          $&&&&&&&&&&*         -&&&&&&*        $&&&&&&*          ",
"           &&&&&&*      %@&&&&&&&%      &&&&&&+                          $&&&&&&&&&&&%         &&&&&&&*      ;&&&&&&*           ",
"           &&&&&&+        $&&&&&&@      &&&&&&+                         .&&&&&.@&&&&&@         .&&&&&&&      *&&&&&&            ",
"           &&&&&&+         &&&&&&&      &&&&&&+                         @&&&&&  &&&&&&          $&&&&&&+    $&&&&&&*            ",
"           &&&&&&+         *&&&&&&      &&&&&&+                         &&&&&$  $&&&&&%         $&&&&&&&    &&&&&&&             ",
"           &&&&&&+         %&&&&&&      &&&&&&+                        *&&&&&@  =&&&&&&          +&&&&&&$  $&&&&&&.             ",
"           &&&&&&+         $&&&&&&      &&&&&&+                        &&&&&&    +&&&&&+          &&&&&&&.+&&&&&&*              ",
"           &&&&&&+         &&&&&&&      &&&&&&+                       $&&&&&@    *&&&&&*          $&&&&&&&$&&&&&&*              ",
"           &&&&&&+        .&&&&&&.      &&&&&&+                       .&&&&&+     &&&&&&           *&&&&&&&&&&&&+               ",
"           &&&&&&+      ..&&&&&&&#      &&&&&&+                       &&&&&$      $&&&&&@          *&&&&&&&&&&&&                ",
"           &&&&&&&&&&&&&&&&&&&&&&       &&&&&&+                      %&&&&&#       &&&&&&           $&&&&&&&&&&#                ",
"           &&&&&&&&&&&&&&&&&&&&&&       &&&&&&+                      &&&&&&        @&&&&&$           &&&&&&&&&@                 ",
"           &&&&&&&&&&&&&&&&&&&&#        &&&&&&+                     ;&&&&&+        +&&&&&*           >&&&&&&&&                  ",
"           &&&&&&&&&&&&&&&&&&%.         &&&&&&+                     @&&&&&&&&&&&&&&&&&&&&&            $&&&&&&$                  ",
"           &&&&&&&&&&&&&&&&@+           &&&&&&+                     &&&&&&&&&&&&&&&&&&&&&&@           +&&&&&&                   ",
"           &&&&&&&&&...@@               &&&&&&+                    +&&&&&&&&&&&&&&&&&&&&&&&           .&&&&&&                   ",
"           &&&&&&+                      &&&&&&+                    *&&&&&&&&&&&&&&&&&&&&&&&*          .&&&&&&                   ",
"           &&&&&&+                      &&&&&&+                   .&&&&&&&&&&&&&&&&&&&&&&&&$          .&&&&&&                   ",
"           &&&&&&+                      &&&&&&+                   @&&&&&&&&&&&&&&&&&&&&&&&&&          .&&&&&&                   ",
"           &&&&&&+                      &&&&&&+                   &&&&&&%            &&&&&&&+         .&&&&&&                   ",
"           &&&&&&+                      &&&&&&&&&&&&&&&&&&&&     @&&&&&&%             &&&&&&%         .&&&&&&                   ",
"           &&&&&&+                      &&&&&&&&&&&&&&&&&&&&     +&&&&&&              @&&&&&&         .&&&&&&                   ",
"           &&&&&&+                      &&&&&&&&&&&&&&&&&&&&     &&&&&&@              .&&&&&&$        .&&&&&&                   ",
"           &&&&&&+                      &&&&&&&&&&&&&&&&&&&&    +&&&&&&+               &&&&&&*        .&&&&&&                   ",
"           &&&&&&+                      &&&&&&&&&&&&&&&&&&&&    @&&&&&&                #&&&&&&        .&&&&&&                   ",
"           &&&&&&+                      &&&&&&&&&&&&&&&&&&&&    &&&&&&@                .&&&&&&@       .&&&&&&                   ",
"                                                                                                                                ",
"                                                                                                                                ",
"                                                                                                                                ",
"                                                                                                                                ",
"                                                                                                                                ",
"                                                                                                                                ",
"                                                                                                                                ",
"                                                                                                                                ",
"                                                                                                                                ",
"                                                                                                                                ",
"                                                                                                                                ",
"                                                                                                                                ",
"                                                                                                                                ",
"                                                                                                                                ",
"                                                                                                                                "};
