/* XPM */
static char * ground2_64_64_xpm[] = {
"64 64 118 2",
"  	c #2A2218",
". 	c #2B2218",
"+ 	c #2B2319",
"@ 	c #2A231A",
"# 	c #2A2319",
"$ 	c #2C231A",
"% 	c #2A2219",
"& 	c #2B231A",
"* 	c #2C241B",
"= 	c #2A2119",
"- 	c #2C241C",
"; 	c #292117",
"> 	c #292118",
", 	c #2A2118",
"' 	c #292017",
") 	c #251F19",
"! 	c #201E1C",
"~ 	c #1B1816",
"{ 	c #22201F",
"] 	c #2A2521",
"^ 	c #29241F",
"/ 	c #2A2621",
"( 	c #231D17",
"_ 	c #201A13",
": 	c #231E1A",
"< 	c #26211E",
"[ 	c #27231F",
"} 	c #2E2B28",
"| 	c #25211D",
"1 	c #1F1A15",
"2 	c #1E1914",
"3 	c #282420",
"4 	c #211D18",
"5 	c #241F1B",
"6 	c #25201C",
"7 	c #221D19",
"8 	c #231F1A",
"9 	c #2C2825",
"0 	c #292622",
"a 	c #24201C",
"b 	c #1E1913",
"c 	c #2A2623",
"d 	c #26221E",
"e 	c #2D2A27",
"f 	c #2A2723",
"g 	c #2D2926",
"h 	c #2B2724",
"i 	c #282421",
"j 	c #201B16",
"k 	c #282017",
"l 	c #292119",
"m 	c #0C0C0C",
"n 	c #161616",
"o 	c #0F0F0F",
"p 	c #262626",
"q 	c #202020",
"r 	c #151515",
"s 	c #2B2B2B",
"t 	c #2E2E2E",
"u 	c #0A0A0A",
"v 	c #1A1A1A",
"w 	c #1D1D1D",
"x 	c #212121",
"y 	c #292929",
"z 	c #1E1E1E",
"A 	c #1B1B1B",
"B 	c #101010",
"C 	c #131313",
"D 	c #171717",
"E 	c #282828",
"F 	c #242424",
"G 	c #303030",
"H 	c #252525",
"I 	c #2C2C2C",
"J 	c #363636",
"K 	c #3D3D3D",
"L 	c #393939",
"M 	c #323232",
"N 	c #404040",
"O 	c #3F3F3F",
"P 	c #1C1C1C",
"Q 	c #141414",
"R 	c #282118",
"S 	c #0D0D0D",
"T 	c #121212",
"U 	c #232323",
"V 	c #0E0E0E",
"W 	c #333333",
"X 	c #2A2A2A",
"Y 	c #1F1F1F",
"Z 	c #313131",
"` 	c #222222",
" .	c #181818",
"..	c #111111",
"+.	c #2F2F2F",
"@.	c #090909",
"#.	c #2D2D2D",
"$.	c #343434",
"%.	c #191919",
"&.	c #272727",
"*.	c #080808",
"=.	c #353535",
"-.	c #3C3C3C",
";.	c #050505",
">.	c #373737",
",.	c #383838",
"'.	c #494949",
").	c #414141",
"!.	c #040404",
"~.	c #3A3A3A",
"{.	c #3B3B3B",
"].	c #060606",
"^.	c #030303",
"/.	c #070707",
"(.	c #0B0B0B",
"_.	c #434343",
":.	c #3E3E3E",
"<.	c #010101",
"  . . + @ # # $ +   . . . . . . . . . . . . . . . . % @ & @ * % = % = - @ % % . . . . . . . . . . & & % ; ; > , = % % & % + . . ",
"' ) ! ~ { ] ^ / ( _ : < [ } [ | : 1 2 3 4 5 6 7 4 : : 8 9 [ 0 a b 8 c d | 9 | c } e f g h g [ i i 3 7 7 j 8 : a 6 8 a 6 a k l . ",
"_ m n o p q r s t u v p w x y q z A B B q C r n D E n v F G z E H C A x I E J K L z t M N O M s I H P C P q Q Q B z Q x x m A R ",
"S r T P o D U t p Q A w F F I V B n z w r B C C D q A w w s E x W P E H s I X p E Y I Z s t t s ` `  .o  .n A v r v o D U ` r { ",
"q ..Q  .H v Q ` I P H Y T q t w Q V z U +.q @.v U U q w t F r Q P z ` q y #.z H  .Y q P H t $.#.C U w m B Q ..r  .%.T C x &.&.H ",
"x F n n U ` z n F A F E T z X &. .B F D U q z t I H Y C U F r r &.y C F J q T *.v y H =.=.H v p v Q %.Y z o B P ..B D v U G M y ",
"z z  .n T q p Y +.C H F C q &.F U ..C F q H X =.K K -.G v q U F p &.p %.y %.u  .;.%.x x x C C %.U P %.r C D Q o D Y B %.F t y #.",
"P Y D v x z x q Y y n P P v r I F S %.p t s X U G $.p s H =.>.F U +.P ` A D %.M Y H q M U D z r v A z V %.T r U  .` T A C Y &.x ",
"P Y q z P P C B Y n A +.w Y r Y T A q y s F +.I #.` Z p +.I X F p E n w v w %.T V Q H #.s s y p A P D U v n q y n &.D ..H H s ..",
"A w ..%.` P  .H y P s A q x z q Q ..v H t ,.L '.).G H Y t y E &.+.#.B n q x n x m  .v Q q +.z %.F w P z Y F x %.r  .H U z z I Y ",
"%.!.;.U @.D n A n p y H y U T I A X C Y F p $.F X  .n o P D C z U x E +.$.x X s x w %.C y s %.x w n P P q x F w P v s &.H &.F t ",
"C C @.B ..T P %.x U #.%.q z %.` A m A ..%.x #.s ,.s v w A w q q U s ` C A U I P s $.p Y X ` =.P v X  .S q &.t s A A  .I I C y A ",
"r z D B V ` n x p &.D ..Q D S v %.F P o r F p #.E W ~.H z x w ` &.%.I q P F F =.{.I ` %.+.~.W I y F Q @.z X z E q p o Q v z t %.",
"Q ..F o v T m B B n A y q v Q p Y T D n S w G x y G x ` U v v F E E +.p y p I H P E  .o z A H ` y z z r %.A D $.F D z v P F q w ",
"D @.D A r w %.z T r x q #.w p U &.A q n n t p p F  .s K E x F y &.I z p ,.L y w D B r p x Z t &.Y y F q Q ` Y Y &.=.$.F ` Y F P ",
"F Y r B A D  .Y q A p w %.` #.X s #.V Y z  .H &.` p E +.I r q q U x F I s &.s v ].^.A ` y z q r B %.q @.r t q +.~.` ` z p #.C D ",
"=.P ..T r w V z x n ..C =.X +.y +.U %.C V  .H X s D F E E y E v X x F ` F E  .m ;.u %.%.E I Y C x D w %.x >.x D U W -.Z Z y z D ",
"z &.B C  .n r Q Q H D o A p x P z #.H w q &.#.+.X z A G X H p p t E E T z n ../.(.V v Y y I E E E z C &.A n w m @.U H W ,.=.$.F ",
" .%.r r D S ..r  .U #.x q Y D w Y p ` z p F G X U p X W E s U s x #.M ..v v T n n w r n q U G U w v F q U w #.q x p _.:.>.G F E ",
"n q H D T  .A v x w P  .H A x A U %.r B C w H v w z H p &.&.H p Y B Q ..r P @.S ..` (.%.v P q H p ` P ..z y G z =.` Y z I U y X ",
"u P A A C S  .U Y S ..n A z q P A U v T D ..A %.` D z %.x E x P x A ..o B /.].B %.%.z z %.H G v ` A Y z r H #.H t U y G t =.q ` ",
"B r %.E s ` V Q T D v H o n r %.x o T D Q r Q m S X Y F n Y z o E %.C  .o n V o ..C n V V E ` F q P ..n P q C t I $.Y M #.q s X ",
"z x Y X F  .x D P x E v P ..n D B A r Q ..n F Y Y G G &.Y q Q (.n w A P Q Q n C q B ..D A  .t w A x s n n q n w U q z X M p H U ",
"` r B A %.v o n v z q v w S w v z w A %.C C A Y %.X U o A v X r B Q T  .o ..%.Q A  .X (.Q A ` U D F v A q B v Y s s %.p q P B A ",
"A o A z Q n q C S B C T T w n A H z A D C F x %. .r P z &.&.P ..r ..w z D ..m v A %.s Q w ` ..C A x E P !.(.H F F U v %.v Y T ..",
"%./.A z ` z C w P X T Q D P  .x A z P r n P p Y %.H E =.&.F z Y n D r z Y A P Y z A v A P %...w n %.%.Q ^.(.Q U p ` P Q z n r A ",
"A Y D C Q C C q P I +.T C C m n S v v q Y P z x t M I q ` F S F %...F  .q Y #.F A v D X n %.U P y v v H Y o w Y Z y Y x y  .v Y ",
"U  .Q D o w P ..Y #.A v Q x Q %.C U Y A %.v Y P P E r r A x Y `  .C r w X F q z v S X A @.x V v y E H Y T r A A E &.G F x ` %.w ",
"n @.n P D P x v H #.A r r w y U M n A (.%.(.&.v t y %.%.w A Q C o z n o /.Q D r (.D s X o P y H z U  .T q  .n D C P p w +.Y v v ",
" .V (.v %.o m %.p E Y w q z y Z %.w r n P m A U +.t G v X x Q o r z U *.n n n r Y Y H X o  .E U y Y A P %.C n r F A  .A r Y s z ",
"C  .D D x T T D x p P Q S @.C o u r T v S (.n T v v #.Y w H x S u U B n Q A P P B Y &.&.%.x F U X ).{.%. .T D n U ` C  .p A v Y ",
"v H T B r n D B U D n D P n x ` r  .%.o B o V D v  .Y U P w A B r %.%.P n ....D %.n P U D E x q $.-.` M D ..u r B w u C P +.y  .",
"x v Y n w C ..S B n C o A y H r D ..n r %.Q B B T z r v P x Y r T A q P ` n w o V *.B ].P Y z M ,.F s H &.F Z ` X w ` U z x P v ",
"` E A v x v Y r P %.o C &.&.X v A o ..Q u o C C V %./.*.u A  .Y Y U z n D %.C r A ..o C Y &.=.F ` D s U A ` H t &.x U D %. .n B ",
"p X ` w x H X U Y ` p T P s Y B C T V I U V o m ..n m u /.].Q P Y V T &.C v  .q m v P H +.Z p %.Z F P w q F Y #.Y n p F C w w x ",
"F H s H p P x w H Y q v q  .o ;.]...m  .` z ^.@.B B V ..(.*.m o v  .D E E  .v v %.E &.Z X ` I ,.E u S m U F Y G  .p T x z  .x +.",
" .A Y w q q U x q %.p r D  .%.r %.r n V V @.m u (.S o m m S m ;.Q P %.H %.F w x n s F y I I '.K H $.+.&.D Y A E Y H E n P  .w Y ",
"C U P ` U r A %.T v S r  .D Q B o ..z C S S (.*./.S @.V Q o *.T A x x X Y w B q C A H p &.{.=.E L ` {.G q t ` z Y x ` &.q z n x ",
"v D V H A ....%.x v Y Q r A  .S n A r r m r V (.*.@.o %.r D o @.Q q T z  .x `  .@.x X F ~.U I y p #.G w :.=.q s F E s X q n B z ",
"v v z r m *.@.w U ` v w D r Y A w q T C B C ....r V m V @.V (.S r A v T z t F H n B x %.z U y &.X q D F #.Y &.U H p ` X A D V z ",
"n w w D w v ..w x x D T  .A Y P w @.m P H Y x P A P  .o B S S r X %.@.n C  .` y ..P ....C C H x &.I p x z ` G y E &.p E %.P T A ",
"P v P q q ` P  . .D D o z %.%.B n v r A ` p A r B ..B  .B Q T C v Q V A z V T A H z F D w ....W y H I H q r p =.p #.D x U p ..Q ",
"D %. .P P q G x F ` D T B %.o P A r D T A n Q A D n u u V V D B Q A v ` T r B W I #.Q ` D D V  .z q #.#.U E X y p v F X H T S %.",
"U p ` z Z H &.m S n Q D  . .w Y w P v v n T v %.%.v T B r n Q ..T A o x  .%.$.F y m P P r q P &.o y Z Z y U z z w z n P A P B r ",
"P %.P C D &.z z  .v  .D S x A P v H q E %.` F U z %.T Q C C T Q o Y  .s &.E X &.w U p q Y ` V ..n E t #.w v %.P P ` w  .w C @.P ",
"y x &.E q ` v Y A P q Q Q D Y x x P q w w q w n %...(.P Q %.Q r o C w ` z p ..B ..` s F y Z %.%.q &.T Y A B V %.H E D .. ./.u V ",
"x H X F p p E E s Z q y z w p w v ` E F T B Y w D P T A %.r S r n A F X x ` Q ` H P &.G $.&.t &.q B r Q T Q D X &.&.A T m @.o n ",
"&.q #.y y Y q s H Z #.` Q A x ` &.t H G z n z ` A V %.P %.u !...n ..%.z &.F Y ` E y y t E w ` z Q %.n Q P ` U D p A Q V D T B B ",
"H ` F U #.p S p #.H ` ..V ..Y &.I t H ` A F z %.x D Y z ..C ^.Q  .T Q Y D V v ` x F H U P U q %.Y v C %. .%.Q P x x P ` C q T T ",
"H %.` ` z U x z F E x w A %.P &.I +.U F F &.z m Q T o o D C /.%.w P D u v A D q r %.z y U z w %.` Q P ..Q Q z Y P P n r n %.D n ",
"I p Y F G >.E z z p q #.Q V q v z F p Y Y Y H w D C v n B ..r C P v o C %.H z w r Q &.%.P ` A Y C Q Q z n A G Y z %. .C p ` Q A ",
"A &.H H t W v p x G &.F ..P  .v F w w Q Q Q z F x z  .z  .z Q @.r U q  .v %.v A x q w z A P T q S %.x w Q r D D T T D w  .w D r ",
"X H A z o E :.M G &.E q B @.w %.r w p F ` r p &.A A w B &.m (.H r v Q q w D v n p F A D n  .T r r p q n  .C D o q w &.q %.P x A ",
"X y x A ` z s I $.s y M w Q r w w X G y I H #.q H y %.n T V z %.w F A n z T T w q ` T P Y A ..V A  .n A C z  .Y U W H H q Y z P ",
"w +.x v Y (.Q Z p E =.y I I B  .D &.X v x V p &.H D ..P  .r P t I E v T  .(.v D Y F ..H t D v  .Y T V B P A S v s z E #.E F T q ",
"` P H w z A %.&.Z O K ,.t Y E n (.P %.Q B ..w q ..S v P v Y  .F z F C C T  .A %.D r ..F v  .T n D P U t E E z F p w P H D U %. .",
"y q p y +.n &.y s M I p y x %.q D ` H ..r Y w P ].o z n z A E E E &.%.Q /.B r Q D B U ` T B B D T C y z y I q A v %.%.Y U r &.r ",
"t x ` =.Z s =.X E E y y p y A ].S Y s t ..v r ..].V ..C A r s x Y s H I n P x X #.H Q D C ..S T D B r A .. .D z  .B z U H X `  .",
"+.I {.~.t F Z E K -.+.y t I q n Y X A %.B B T ;.].T P n C %.v Y T D A #.X H U E U +.D r V S T x p z w v H U U Q  .r S H &.&.Y ` ",
"&.Z p Z +.F t W =.t t &.` H r T P ..m r V T C &.P Y r P v Y ` y F q x +.t y ` F  .z o F  .D Q C x #.` ` z Y ` w z Q n G I F H  .",
"t z ` w T H v p H $.s ` w w v D o T %.(.V D ` n o Q o F z w E H H X p $.s M P p ;...%.A  .` Y v w A &.` I M I t B w w Y U Y Y A ",
"y Q B m &.p y W +.H v Y S P %.y C o %.z F I y F ` %.A m ` ` G Q q F Q A H x o w (.m  .w n T x H x T G y ,.G W M  . .@.C H x &.U ",
"x Q <.*.r z ` U ....v Y n Q v v B o B B p G y z  .r n (.H X p D  .U z Y I A q H D %... .Q z Q x Q C %.&.` q  .U A T P z x r w x ",
"w /.@.@. .z G t %.z U Q v Y r T D S Y I y F  . .w H w  .X E w y Y &.P %.F s +.x Q D D S T Q ..q w A ` T B A @.r C Q C q C D ..P "};
