/* XPM */
static char *_d9dcf04cf504cf7e07b065cb73ee09c9uq5wmmqyAnX6T8b[] = {
/* columns rows colors chars-per-pixel */
"64 64 256 2 ",
"   c black",
".  c #010101",
"X  c #020202",
"o  c gray1",
"O  c #040404",
"+  c gray2",
"@  c #060606",
"#  c #070707",
"$  c gray3",
"%  c #090909",
"&  c gray4",
"*  c #0B0B0B",
"=  c #0C0C0C",
"-  c gray5",
";  c #0E0E0E",
":  c gray6",
">  c #101010",
",  c #111111",
"<  c gray7",
"1  c #131313",
"2  c gray8",
"3  c #151515",
"4  c #161616",
"5  c gray9",
"6  c #181818",
"7  c #191919",
"8  c gray10",
"9  c #1B1B1B",
"0  c gray11",
"q  c #1D1D1D",
"w  c #1E1E1E",
"e  c gray12",
"r  c #202020",
"t  c gray13",
"y  c #222222",
"u  c #232323",
"i  c gray14",
"p  c #252525",
"a  c gray15",
"s  c #272727",
"d  c #282828",
"f  c gray16",
"g  c #2A2A2A",
"h  c gray17",
"j  c #2C2C2C",
"k  c #2D2D2D",
"l  c gray18",
"z  c #2F2F2F",
"x  c gray19",
"c  c #313131",
"v  c #323232",
"b  c gray20",
"n  c #343434",
"m  c #353535",
"M  c gray21",
"N  c #373737",
"B  c gray22",
"V  c #393939",
"C  c #3A3A3A",
"Z  c gray23",
"A  c #3C3C3C",
"S  c gray24",
"D  c #3E3E3E",
"F  c #3F3F3F",
"G  c gray25",
"H  c #414141",
"J  c gray26",
"K  c #434343",
"L  c #444444",
"P  c gray27",
"I  c #464646",
"U  c gray28",
"Y  c #484848",
"T  c #494949",
"R  c gray29",
"E  c #4B4B4B",
"W  c #4C4C4C",
"Q  c gray30",
"!  c #4E4E4E",
"~  c gray31",
"^  c #505050",
"/  c #515151",
"(  c gray32",
")  c #535353",
"_  c gray33",
"`  c #555555",
"'  c #565656",
"]  c gray34",
"[  c #585858",
"{  c gray35",
"}  c #5A5A5A",
"|  c #5B5B5B",
" . c gray36",
".. c #5D5D5D",
"X. c gray37",
"o. c #5F5F5F",
"O. c #606060",
"+. c gray38",
"@. c #626262",
"#. c gray39",
"$. c #646464",
"%. c #656565",
"&. c gray40",
"*. c #676767",
"=. c #686868",
"-. c DimGray",
";. c #6A6A6A",
":. c gray42",
">. c #6C6C6C",
",. c #6D6D6D",
"<. c gray43",
"1. c #6F6F6F",
"2. c gray44",
"3. c #717171",
"4. c #727272",
"5. c gray45",
"6. c #747474",
"7. c gray46",
"8. c #767676",
"9. c #777777",
"0. c gray47",
"q. c #797979",
"w. c gray48",
"e. c #7B7B7B",
"r. c #7C7C7C",
"t. c gray49",
"y. c #7E7E7E",
"u. c gray50",
"i. c #808080",
"p. c #818181",
"a. c gray51",
"s. c #838383",
"d. c #848484",
"f. c gray52",
"g. c #868686",
"h. c gray53",
"j. c #888888",
"k. c #898989",
"l. c gray54",
"z. c #8B8B8B",
"x. c gray55",
"c. c #8D8D8D",
"v. c #8E8E8E",
"b. c gray56",
"n. c #909090",
"m. c gray57",
"M. c #929292",
"N. c #939393",
"B. c gray58",
"V. c #959595",
"C. c gray59",
"Z. c #979797",
"A. c #989898",
"S. c gray60",
"D. c #9A9A9A",
"F. c #9B9B9B",
"G. c gray61",
"H. c #9D9D9D",
"J. c gray62",
"K. c #9F9F9F",
"L. c #A0A0A0",
"P. c gray63",
"I. c #A2A2A2",
"U. c gray64",
"Y. c #A4A4A4",
"T. c #A5A5A5",
"R. c gray65",
"E. c #A7A7A7",
"W. c gray66",
"Q. c #A9A9A9",
"!. c #AAAAAA",
"~. c gray67",
"^. c #ACACAC",
"/. c gray68",
"(. c #AEAEAE",
"). c #AFAFAF",
"_. c gray69",
"`. c #B1B1B1",
"'. c #B2B2B2",
"]. c gray70",
"[. c #B4B4B4",
"{. c gray71",
"}. c #B6B6B6",
"|. c #B7B7B7",
" X c gray72",
".X c #B9B9B9",
"XX c gray73",
"oX c #BBBBBB",
"OX c #BCBCBC",
"+X c gray74",
"@X c gray",
"#X c gray75",
"$X c #C0C0C0",
"%X c #C1C1C1",
"&X c gray76",
"*X c #C3C3C3",
"=X c gray77",
"-X c #C5C5C5",
";X c #C6C6C6",
":X c gray78",
">X c #C8C8C8",
",X c gray79",
"<X c #CACACA",
"1X c #CBCBCB",
"2X c gray80",
"3X c #CDCDCD",
"4X c #CECECE",
"5X c gray81",
"6X c #D0D0D0",
"7X c gray82",
"8X c #D2D2D2",
"9X c LightGray",
"0X c gray83",
"qX c #D5D5D5",
"wX c gray84",
"eX c #D7D7D7",
"rX c #D8D8D8",
"tX c gray85",
"yX c #DADADA",
"uX c gray86",
"iX c gainsboro",
"pX c #DDDDDD",
"aX c gray87",
"sX c #DFDFDF",
"dX c gray88",
"fX c #E1E1E1",
"gX c #E2E2E2",
"hX c gray89",
"jX c #E4E4E4",
"kX c gray90",
"lX c #E6E6E6",
"zX c #E7E7E7",
"xX c gray91",
"cX c #E9E9E9",
"vX c #EAEAEA",
"bX c gray92",
"nX c #ECECEC",
"mX c gray93",
"MX c #EEEEEE",
"NX c #EFEFEF",
"BX c gray94",
"VX c #F1F1F1",
"CX c gray95",
"ZX c #F3F3F3",
"AX c #F4F4F4",
"SX c gray96",
"DX c #F6F6F6",
"FX c gray97",
"GX c #F8F8F8",
"HX c #F9F9F9",
"JX c gray98",
"KX c #FBFBFB",
"LX c gray99",
"PX c #FDFDFD",
"IX c #FEFEFE",
"UX c white",
/* pixels */
"g.i.u.d.d.h.y.q.q.t.t.e.a.s.s.j.j.h.h.l.k.l.l.j.a.d.p.p.i.i.a.j.h.d.p.p.s.f.j.j.g.i.d.j.j.h.h.h.g.j.k.f.f.j.h.g.d.f.d.d.f.k.g.j.",
"g.f.s.f.d.f.f.t.a.g.y.t.r.t.y.a.a.g.h.h.k.c.z.k.p.f.g.h.g.d.d.s.k.d.f.f.s.s.j.f.s.g.z.k.h.h.d.f.z.g.g.k.s.p.s.h.j.f.d.s.d.j.z.s.",
"g.d.f.d.d.d.s.g.d.p.j.j.d.q.w.i.h.h.f.j.z.l.l.h.h.h.j.j.l.g.r.s.h.a.f.k.a.y.f.s.j.c.j.g.j.l.k.k.j.s.s.k.a.d.g.h.j.f.s.a.a.a.g.f.",
"f.d.d.d.s.a.i.f.r.8.d.h.j.i.y.g.l.h.h.g.h.j.j.g.h.i.p.h.j.d.w.u.g.d.d.l.p.i.f.h.l.f.u.d.g.d.j.j.j.g.g.d.p.h.d.a.g.g.a.u.y.p.s.s.",
"d.s.d.g.g.s.p.s.a.a.f.s.d.d.h.a.d.l.x.g.f.k.j.j.h.s.s.g.h.p.i.d.d.j.c.d.u.s.f.z.j.a.g.d.d.g.p.g.l.g.d.g.j.d.a.y.g.j.j.a.i.y.u.a.",
"f.g.a.s.g.a.u.y.a.a.i.y.s.s.d.0.y.z.j.h.h.h.f.h.g.j.k.h.d.a.u.p.g.l.h.a.y.u.j.x.d.a.s.e.w.f.h.g.d.f.d.j.s.p.l.k.d.p.j.p.a.y.p.a.",
"p.d.i.y.p.u.u.y.i.y.u.t.s.p.f.a.g.f.g.h.g.d.h.j.k.h.h.f.i.s.d.s.l.k.a.s.p.u.f.j.i.p.s.q.6.w.i.a.j.f.f.s.g.j.j.u.f.k.s.r.s.d.p.p.",
"d.d.a.u.t.i.p.u.p.r.u.y.s.d.u.p.s.a.h.k.j.a.k.k.j.k.h.h.g.k.j.k.x.g.a.p.s.r.a.z.d.i.e.p.r.i.d.h.s.u.s.a.f.f.h.s.l.h.w.w.t.r.y.f.",
"f.g.a.p.y.p.s.s.a.s.a.u.p.g.i.u.s.i.d.h.g.g.g.j.f.l.g.h.h.j.l.f.f.s.i.i.p.i.g.z.a.d.s.g.f.j.d.d.i.p.y.p.a.s.g.f.f.i.q.r.i.u.r.i.",
"j.s.s.d.a.f.s.f.a.j.t.i.f.f.f.d.d.p.p.h.j.d.f.c.v.x.k.h.h.l.l.a.j.a.i.p.i.p.s.j.h.d.d.d.g.f.u.i.i.f.r.u.d.s.d.d.i.t.r.u.u.a.d.d.",
"g.g.g.g.h.a.y.f.d.s.s.f.s.f.s.f.f.p.s.g.j.j.x.c.l.k.g.h.h.l.l.l.k.a.f.a.d.d.t.i.j.d.h.p.f.d.p.u.a.y.q.y.d.t.i.u.t.w.i.s.t.f.f.g.",
"s.g.j.g.g.f.d.f.d.s.g.p.u.f.g.j.g.d.j.t.i.x.k.i.s.s.i.s.k.x.h.f.j.f.a.a.d.p.i.u.f.j.j.h.g.f.u.i.p.t.w.u.u.p.i.u.p.i.s.a.g.a.a.f.",
"d.j.j.h.d.h.f.h.g.f.h.d.f.d.s.g.f.d.f.e.t.h.a.d.d.a.r.s.z.j.d.g.k.j.a.s.p.p.d.y.j.k.j.j.h.h.a.u.u.y.t.p.t.y.r.q.i.d.s.s.h.u.s.d.",
"h.g.s.g.a.h.g.g.g.h.a.h.g.h.f.f.f.g.f.h.h.f.a.s.a.a.p.u.g.s.i.d.j.h.f.s.a.s.p.f.k.h.g.g.h.g.d.a.i.i.u.u.i.e.t.w.i.a.s.f.f.f.h.f.",
"f.a.u.i.d.h.l.k.l.l.s.a.g.g.s.g.h.h.g.j.k.k.g.f.s.p.a.i.f.a.i.p.a.f.f.f.d.s.a.u.a.g.h.k.g.g.f.h.f.d.d.r.u.u.d.a.y.f.f.f.d.g.j.g.",
"d.a.y.p.f.j.k.x.k.j.s.t.s.d.s.h.h.h.h.h.k.d.k.h.j.f.d.d.f.p.t.a.a.g.f.s.s.p.p.d.a.f.z.c.g.j.h.k.h.p.s.p.a.z.l.f.h.k.f.g.h.h.f.s.",
"f.a.i.s.f.k.g.z.l.g.s.a.y.p.i.j.f.d.s.d.z.z.k.f.h.f.s.f.f.i.u.s.d.f.s.d.d.i.i.f.i.f.k.k.d.h.k.h.g.g.g.u.s.k.k.h.k.j.a.u.f.g.f.d.",
"g.d.g.d.i.i.i.f.h.k.h.s.a.a.a.d.p.w.9.r.s.p.d.g.g.g.a.f.g.a.i.g.h.h.f.d.s.s.s.d.i.h.k.j.f.g.h.a.g.g.p.d.h.h.k.j.l.a.u.y.u.s.h.f.",
"d.g.g.k.d.y.y.u.i.l.c.k.j.k.s.q.q.8.7.7.7.8.q.q.t.f.p.i.s.p.s.k.l.h.d.f.f.a.p.p.i.s.k.h.d.s.j.f.h.g.g.g.g.k.l.f.c.g.y.t.q.q.t.u.",
"d.d.k.c.a.p.s.p.a.f.c.x.k.l.f.r.8.9.7.6.7.8.8.5.7.i.d.p.i.s.f.j.k.h.h.f.a.d.s.a.p.s.j.h.f.h.v.x.z.h.a.i.d.h.k.h.j.l.i.i.r.r.r.u.",
"f.j.j.z.h.d.d.d.a.f.z.l.k.k.z.i.y.u.9.7.7.w.w.r.e.u.i.u.y.s.d.g.h.h.l.k.d.f.d.a.s.g.h.k.l.j.k.k.k.g.s.p.s.h.l.f.d.k.j.s.y.a.d.d.",
"d.l.g.f.t.f.g.d.d.h.g.h.h.g.k.h.g.g.p.t.y.u.u.a.u.p.d.p.i.d.f.d.h.j.g.h.f.d.d.d.f.f.h.l.l.f.a.g.j.g.f.d.f.h.f.s.a.h.j.d.p.u.s.s.",
"i.p.i.i.y.h.g.d.f.g.d.s.h.j.g.j.s.p.p.i.i.p.a.p.y.a.d.a.p.g.s.a.f.f.p.a.d.h.k.l.h.h.h.k.k.h.d.d.f.h.p.g.f.u.i.s.d.d.i.p.i.y.i.i.",
"u.y.r.u.r.h.s.a.y.i.u.t.i.g.f.h.h.h.s.g.k.g.i.u.a.a.a.h.s.d.f.s.d.s.p.a.g.g.h.j.j.j.h.k.j.j.h.g.h.j.h.h.d.r.u.h.h.s.u.u.u.u.u.u.",
"r.r.t.y.i.j.d.s.f.i.r.e.t.a.a.a.p.j.h.g.s.h.s.d.s.p.u.h.d.a.p.y.y.y.y.y.s.f.d.h.l.b.c.l.l.h.j.j.k.j.h.h.p.0.e.s.f.p.i.i.f.i.u.y.",
"q.0.e.r.i.h.d.a.i.y.y.r.y.a.d.a.p.j.h.j.h.g.h.f.i.p.a.s.f.y.0.9.9.9.0.0.t.p.a.f.l.N.n.c.k.h.c.l.x.l.g.h.j.g.s.a.d.p.u.s.j.f.p.t.",
"r.q.y.y.t.d.f.d.d.p.i.a.i.s.l.h.j.k.k.k.k.h.d.s.f.f.l.g.s.i.8.7.7.8.9.w.y.u.a.g.k.b.M.v.x.l.v.b.v.c.z.l.d.j.s.r.f.i.q.u.y.p.f.y.",
"u.y.y.t.i.d.d.d.d.p.p.f.d.j.k.j.j.j.x.k.k.l.j.g.k.f.d.a.i.i.0.6.6.7.9.y.y.p.f.l.j.x.N.c.x.l.z.b.b.b.z.u.r.d.f.i.g.p.e.t.t.g.g.u.",
"y.i.u.p.g.f.d.d.d.g.g.d.d.f.s.g.x.k.z.x.c.v.x.l.z.j.a.p.p.h.p.w.9.0.y.u.y.p.g.j.j.c.N.v.v.z.j.g.g.k.h.e.a.l.a.s.i.t.w.r.t.f.g.a.",
"i.a.p.d.a.g.j.h.h.d.f.f.g.p.a.d.j.x.c.N.v.l.k.h.f.f.f.f.t.d.f.p.y.u.i.p.p.p.a.h.c.b.x.x.c.z.g.d.h.f.x.z.l.h.d.d.a.y.t.u.t.p.h.f.",
"d.u.i.g.a.f.k.d.f.f.s.f.g.t.s.j.k.m.M.b.f.f.d.p.i.i.s.a.p.a.d.i.y.p.i.i.p.p.s.h.m.n.x.v.x.x.f.g.g.g.l.l.k.j.h.g.h.p.i.u.t.p.s.s.",
"s.s.f.d.d.d.i.w.i.k.g.g.h.g.j.k.k.c.v.s.p.d.s.p.i.u.s.u.i.g.g.g.d.i.a.p.p.d.k.j.x.b.c.v.c.v.h.f.g.g.f.p.f.f.h.j.g.s.p.u.s.i.u.g.",
"s.f.f.f.g.h.i.q.f.l.z.j.j.g.h.h.z.l.f.p.p.h.s.i.u.u.i.d.i.s.g.a.a.i.i.f.i.h.l.j.x.v.m.M.n.n.j.d.g.g.d.s.f.d.g.j.j.d.p.p.j.d.s.f.",
"s.g.a.s.a.s.l.c.z.c.h.t.d.j.g.g.k.n.d.i.s.u.q.8.8.q.t.s.p.a.a.u.a.p.p.d.p.d.k.k.k.l.z.c.N.m.x.g.h.g.p.i.d.f.g.h.h.g.a.i.s.s.a.p.",
"d.a.t.f.i.d.h.z.k.z.p.i.k.j.g.l.x.z.j.d.i.q.6.7.7.9.e.u.a.a.g.a.p.i.a.a.a.f.j.h.k.g.h.j.k.l.M.m.v.f.w.t.s.d.f.g.f.d.s.d.u.i.s.s.",
"y.s.d.g.s.h.g.g.j.f.j.l.f.i.j.c.c.x.c.s.i.w.6.6.7.7.r.y.a.a.f.a.a.a.s.g.d.f.a.i.g.d.f.h.j.b.b.m.b.z.f.i.a.f.h.h.h.f.s.f.a.s.d.d.",
"p.f.d.i.a.d.g.g.j.h.z.k.e.t.k.h.h.z.f.a.s.r.8.6.6.w.u.y.a.d.h.s.i.s.a.f.f.a.p.i.a.s.g.h.k.z.k.b.n.z.j.h.j.x.h.j.g.g.h.f.f.h.f.d.",
"j.s.u.d.s.d.h.j.j.j.l.v.d.f.k.f.k.l.d.d.g.h.y.e.r.p.u.u.f.f.p.i.u.a.f.h.g.s.a.s.u.a.h.j.j.l.j.j.z.d.f.k.v.g.t.d.p.f.k.d.s.h.p.y.",
"h.p.e.i.s.a.s.f.l.g.j.b.b.x.j.g.j.j.d.g.d.d.a.i.i.i.d.a.a.j.s.d.p.s.f.p.p.u.u.i.u.p.f.f.j.z.h.f.g.g.h.i.k.p.e.h.l.d.g.k.k.l.z.j.",
"c.y.0.i.f.p.s.j.c.j.k.j.j.l.j.f.g.h.f.a.a.f.a.f.h.f.s.i.u.h.d.p.i.s.j.p.a.s.p.s.d.p.s.f.j.x.j.h.g.h.f.d.h.c.j.l.h.c.x.c.x.f.l.v.",
"x.k.f.p.d.d.f.l.x.z.k.f.h.j.g.f.g.l.l.g.d.f.h.h.f.p.p.d.d.d.f.u.i.p.j.d.g.f.p.a.p.u.a.h.j.k.f.s.f.g.d.f.a.l.c.j.f.j.x.n.k.a.g.v.",
"c.g.g.s.d.x.z.l.l.l.l.g.f.g.h.g.f.h.z.x.k.d.p.s.k.k.f.f.l.f.s.a.y.p.f.a.f.f.p.i.i.p.i.s.h.h.d.s.s.h.j.f.p.j.z.g.s.g.z.b.b.c.n.m.",
"v.p.a.f.s.h.v.l.h.j.c.j.g.h.g.g.g.h.h.j.v.z.g.l.n.m.j.h.s.s.i.s.s.f.g.d.s.i.d.i.i.a.p.p.h.h.f.h.g.z.k.a.a.x.z.h.d.d.z.j.v.g.l.B.",
"z.j.s.g.h.l.x.l.g.h.c.j.h.h.h.g.f.h.l.k.c.z.k.x.l.l.l.n.g.a.d.j.f.f.s.u.a.i.d.p.i.p.f.s.h.g.d.f.h.l.j.g.g.z.l.h.h.d.h.c.n.g.k.b.",
"d.g.f.f.k.c.z.l.z.z.z.j.j.j.g.d.d.g.c.x.h.f.g.h.g.s.g.j.f.d.g.g.f.a.f.a.p.i.i.f.s.g.h.s.g.g.g.d.f.d.l.l.j.l.g.d.h.h.f.h.z.c.c.h.",
"g.j.j.k.z.l.l.l.z.x.x.k.l.h.d.d.j.z.j.f.a.s.p.f.d.d.g.g.h.g.d.g.f.d.s.y.a.y.a.a.g.h.h.d.a.g.j.d.s.f.l.z.j.k.k.j.h.j.j.p.p.k.k.h.",
"h.k.k.l.l.l.j.x.n.c.k.k.k.g.f.h.k.j.f.d.f.g.s.d.s.a.f.j.h.f.g.h.g.h.f.d.s.s.s.i.s.a.s.d.a.i.s.f.a.z.h.k.k.s.l.k.h.k.j.d.d.k.f.d.",
"i.i.a.d.f.d.s.s.h.j.k.k.j.j.h.k.j.j.h.g.j.k.g.g.s.f.g.h.h.g.h.h.j.h.k.j.h.d.f.h.g.d.s.a.s.a.s.f.h.z.l.h.h.g.f.f.g.j.g.a.p.k.h.s.",
"a.u.a.h.a.i.p.a.g.j.k.x.k.h.j.h.h.j.j.h.j.g.s.d.g.z.k.s.f.s.i.g.j.h.j.f.h.s.f.k.j.g.g.d.d.g.j.h.h.l.h.s.d.k.g.f.h.h.h.g.a.k.x.f.",
"d.a.f.h.s.u.y.a.f.d.k.x.k.s.f.l.k.h.l.j.p.j.h.j.h.g.g.f.f.f.d.f.g.f.a.d.d.h.j.h.s.g.l.k.j.j.j.f.d.k.h.g.d.j.h.f.d.i.p.l.f.g.k.g.",
"p.a.s.i.p.p.r.q.t.g.a.d.j.h.f.k.k.l.z.g.j.h.g.h.h.h.h.j.j.s.i.g.h.h.s.g.j.h.k.g.f.h.l.d.k.k.h.f.f.s.h.d.u.f.s.s.d.f.s.h.j.h.h.i.",
"f.d.p.i.p.y.r.t.t.a.p.g.k.g.g.f.k.c.l.s.h.g.g.p.d.l.j.h.j.d.p.d.j.l.k.h.k.g.j.k.g.d.k.j.x.c.f.g.j.d.g.a.u.d.d.f.s.g.f.g.h.h.g.y.",
"f.f.p.y.r.u.a.g.r.g.d.g.p.d.g.d.f.f.k.f.j.j.h.h.h.u.g.h.h.h.d.f.j.g.h.j.k.h.g.j.f.f.v.v.v.v.h.h.i.f.h.f.g.a.g.i.i.f.s.d.j.k.g.f.",
"f.f.p.i.i.s.p.p.f.j.f.f.h.s.j.f.i.u.a.i.d.j.g.h.g.y.g.h.h.h.h.h.a.j.k.k.k.k.l.f.h.c.k.g.g.s.f.f.a.f.d.d.f.d.h.d.d.d.s.h.h.s.g.f.",
"d.h.a.i.s.f.u.u.j.j.f.f.g.d.h.g.s.s.a.t.p.s.h.g.h.k.j.j.k.h.h.h.d.k.k.h.k.l.z.j.l.h.i.a.d.p.p.d.f.g.d.p.f.g.s.h.g.h.f.j.g.d.k.f.",
"g.h.s.i.f.f.f.d.p.p.j.f.u.j.g.p.s.p.s.a.a.s.g.l.k.k.j.k.l.h.j.g.g.g.k.d.g.j.h.l.l.a.d.h.f.s.s.f.s.j.d.f.k.j.d.j.j.f.g.j.d.f.j.g.",
"g.j.h.h.u.d.f.s.u.q.g.g.f.d.d.a.h.a.a.d.s.g.f.g.l.d.h.z.k.g.h.k.s.h.k.d.g.h.z.x.h.p.d.a.f.a.f.h.f.h.j.s.h.z.k.g.j.g.f.k.h.g.k.d.",
"g.g.g.f.u.f.a.f.p.d.g.u.s.d.s.a.a.d.s.a.d.l.h.a.k.x.z.l.j.g.f.s.k.v.j.a.g.k.k.k.a.u.f.s.f.p.f.g.d.h.k.s.j.j.d.h.g.g.p.u.l.h.s.g.",
"d.g.f.g.g.g.p.s.d.g.a.q.u.d.s.p.i.d.a.y.f.h.f.j.v.c.l.h.h.j.g.g.l.g.i.s.h.h.f.k.h.i.i.j.g.a.p.g.f.g.g.u.h.j.g.k.h.d.u.f.k.h.a.s.",
"f.h.d.d.d.h.s.a.f.p.y.e.r.s.p.h.g.d.a.y.a.f.h.x.f.a.f.s.d.j.h.z.j.a.f.f.s.f.d.z.d.s.s.s.f.g.f.g.j.s.p.k.j.s.l.z.p.s.j.h.j.f.d.i.",
"d.k.g.g.f.s.e.p.i.u.u.y.y.s.g.j.h.p.g.s.d.h.l.f.a.d.f.s.a.f.h.x.f.a.s.t.q.t.a.h.h.d.p.p.d.g.g.h.k.s.h.l.u.q.y.j.a.h.h.l.d.p.f.h.",
"h.g.i.j.d.s.f.p.y.i.p.e.e.s.d.g.j.g.g.s.g.l.z.s.s.f.y.i.p.i.f.j.i.p.s.0.7.0.d.s.g.i.a.j.l.f.d.h.h.d.d.s.w.e.i.h.h.g.d.g.k.g.g.d.",
"g.r.w.d.d.g.j.e.t.a.p.p.a.e.p.k.k.j.j.k.k.z.g.i.s.t.8.8.i.t.a.z.s.i.r.i.e.y.d.k.h.g.h.k.g.h.j.f.f.d.f.d.t.t.i.t.t.g.j.p.j.j.s.g.",
"a.w.t.s.f.x.i.0.0.a.d.y.a.u.s.j.l.h.h.j.j.j.s.i.d.u.9.0.u.i.f.l.s.s.p.f.g.d.h.l.h.d.f.l.a.h.j.h.f.h.j.j.g.f.p.r.9.p.h.d.j.h.f.j."
};
